<?xml version="1.0" standalone="no"?>
<!DOCTYPE svg PUBLIC "-//W3C//DTD SVG 20010904//EN"
 "http://www.w3.org/TR/2001/REC-SVG-20010904/DTD/svg10.dtd">
<svg version="1.0" xmlns="http://www.w3.org/2000/svg"
 width="544.000000pt" height="260.000000pt" viewBox="0 0 544.000000 260.000000"
 preserveAspectRatio="xMidYMid meet">

<g transform="translate(0.000000,260.000000) scale(0.100000,-0.100000)"
fill="#000000" stroke="none">
<path d="M694 2262 c-5 -4 -23 -24 -38 -45 -29 -37 -29 -37 -40 -15 -11 22
-17 23 -116 23 l-105 0 -3 -49 c-4 -60 3 -66 88 -66 61 -1 64 -2 45 -16 -11
-9 -48 -29 -82 -45 -34 -16 -65 -34 -68 -40 -10 -16 25 -89 44 -90 9 -1 24 0
34 1 16 1 17 -11 15 -161 l-3 -163 -34 -7 c-42 -9 -50 -22 -40 -66 12 -55 19
-59 107 -46 116 17 186 43 190 71 3 21 8 22 83 22 77 0 79 0 79 -25 0 -17 6
-26 23 -29 217 -46 253 -51 262 -36 4 7 11 28 15 46 9 40 -6 62 -51 71 l-29 6
0 158 0 158 32 3 c27 3 33 9 46 46 16 49 6 72 -33 72 -36 0 -36 10 0 58 19 25
35 50 35 57 0 6 -13 23 -28 38 -28 27 -29 27 -179 27 -141 0 -153 2 -194 25
-25 13 -49 21 -55 17z m66 -62 c0 -6 64 -10 163 -10 150 0 165 -2 182 -20 17
-18 16 -21 -13 -57 -16 -21 -39 -47 -51 -57 -21 -19 -22 -19 -46 4 l-25 24 22
23 21 23 -68 0 -68 0 24 -26 c33 -36 102 -69 172 -84 45 -9 57 -15 53 -27 -3
-8 -6 -22 -6 -30 0 -13 -9 -15 -51 -10 -65 8 -146 45 -196 91 l-40 35 -29 -30
c-29 -30 -108 -72 -156 -83 -23 -5 -28 -2 -37 26 -6 17 -11 32 -11 33 0 1 18
5 41 9 52 8 87 26 123 65 l30 31 -44 0 c-35 0 -50 -6 -75 -30 l-31 -30 -23 24
-22 23 50 52 c28 29 51 57 51 62 0 5 14 3 30 -6 17 -9 30 -20 30 -25z m-170
-30 l0 -30 -90 0 -90 0 0 30 0 30 90 0 90 0 0 -30z m-4 -111 c19 -21 19 -21
-10 -44 -30 -24 -96 -58 -132 -69 -16 -5 -23 0 -33 20 -6 15 -10 28 -9 29 5 5
153 83 159 84 3 1 14 -8 25 -20z m309 -71 c5 -5 -22 -8 -60 -8 l-69 0 34 29
35 29 25 -21 c14 -12 29 -25 35 -29z m155 -213 l0 -175 -32 -1 c-26 -1 -18 -5
35 -19 38 -10 70 -20 72 -22 10 -10 -13 -63 -26 -59 -8 1 -62 12 -120 23
l-105 20 4 29 4 29 -112 0 -111 0 3 -27 c3 -27 0 -29 -80 -50 -46 -12 -100
-23 -119 -25 -33 -3 -37 0 -44 27 -5 16 -7 30 -6 32 2 1 39 9 82 18 91 17 105
25 47 25 l-42 0 0 175 0 175 275 0 275 0 0 -175z"/>
<path d="M570 1875 c0 -13 29 -15 205 -15 176 0 205 2 205 15 0 13 -29 15
-205 15 -176 0 -205 -2 -205 -15z"/>
<path d="M570 1780 c0 -19 7 -20 205 -20 198 0 205 1 205 20 0 19 -7 20 -205
20 -198 0 -205 -1 -205 -20z"/>
<path d="M570 1680 c0 -19 7 -20 205 -20 198 0 205 1 205 20 0 19 -7 20 -205
20 -198 0 -205 -1 -205 -20z"/>
<path d="M3740 2256 c-47 -6 -91 -15 -97 -19 -9 -6 -13 -42 -13 -120 0 -107
-1 -113 -22 -122 -22 -9 -23 -16 -23 -115 l0 -105 43 -3 c56 -4 72 10 72 64 0
40 2 44 25 44 23 0 25 -4 25 -44 0 -50 10 -56 91 -56 38 0 48 -4 52 -20 5 -19
0 -20 -133 -20 -151 0 -150 1 -150 -64 0 -50 13 -56 125 -56 57 0 94 -4 87 -9
-15 -9 -33 -77 -26 -96 7 -17 64 -42 116 -50 95 -14 171 34 184 116 l7 39 102
0 c118 0 128 6 123 72 l-3 43 -100 5 -100 5 43 19 c48 22 53 42 21 87 l-20 29
36 0 c32 0 36 -3 31 -20 -3 -11 -8 -29 -11 -39 -3 -10 1 -26 10 -35 20 -19 83
-32 96 -19 14 14 39 112 39 155 0 32 -5 40 -30 53 l-30 16 0 113 c0 63 -3 121
-6 130 -5 13 -25 16 -110 16 -72 0 -104 -4 -104 -12 0 -7 -6 -6 -17 4 -29 24
-49 27 -72 12 -18 -13 -27 -13 -56 -3 -29 11 -37 10 -52 -4 -17 -15 -20 -15
-31 3 -7 11 -18 19 -25 19 -6 -1 -50 -7 -97 -13z m112 -41 c6 -14 8 -28 4 -32
-4 -4 -36 -9 -71 -11 -47 -3 -65 -8 -65 -18 0 -10 15 -14 55 -14 54 0 55 0 55
-30 0 -30 -1 -30 -55 -30 -73 0 -71 -18 3 -22 54 -3 57 -4 60 -30 3 -28 3 -28
-57 -28 -48 0 -61 -3 -61 -15 0 -12 16 -15 85 -15 l86 0 -16 29 c-15 29 -14
30 15 36 31 7 39 20 18 28 -10 3 -10 8 1 21 13 16 13 17 -3 14 -10 -2 -25 7
-33 19 -15 22 -14 24 18 37 28 12 31 16 17 21 -22 9 -23 28 -2 46 14 11 21 10
46 -4 30 -17 32 -17 54 4 23 22 24 22 44 4 19 -17 19 -19 3 -37 -15 -17 -15
-19 3 -32 18 -13 18 -15 2 -33 -16 -17 -16 -21 -3 -40 13 -18 13 -22 0 -33
-13 -11 -13 -14 2 -26 15 -11 16 -16 5 -33 -12 -21 -10 -21 73 -21 69 0 85 3
85 15 0 12 -13 15 -60 15 l-60 0 0 30 0 30 60 0 c33 0 60 4 60 10 0 6 -27 10
-60 10 l-60 0 0 30 0 30 60 0 c47 0 60 3 60 15 0 12 -13 15 -55 15 -54 0 -55
0 -55 30 l0 30 85 0 85 0 0 -129 0 -129 30 -12 c25 -10 30 -18 30 -47 0 -19
-5 -55 -11 -80 -11 -43 -13 -45 -42 -39 -40 8 -40 8 -28 53 6 21 11 44 11 51
0 9 -67 12 -300 12 l-300 0 0 -55 0 -55 -35 0 -36 0 3 83 c3 81 3 82 30 85
l27 3 3 127 3 127 70 6 c39 3 78 6 88 7 10 1 22 -9 29 -23z m311 -374 l25 -38
-81 -39 -82 -39 138 -3 137 -3 0 -34 0 -35 -115 0 -115 0 0 -45 c0 -88 -81
-135 -185 -106 -59 16 -66 23 -59 58 6 31 6 31 40 17 52 -22 111 -18 124 7 7
11 9 32 6 45 l-6 24 -175 0 -175 0 0 35 0 35 157 0 c151 0 156 1 140 18 -23
25 -21 32 6 32 12 0 40 9 62 19 l40 19 -137 1 -138 1 0 28 c0 16 3 32 7 35 3
4 86 7 183 7 l177 0 26 -39z m-193 -235 c0 -8 -7 -16 -15 -19 -14 -6 -115 19
-115 28 0 3 29 5 65 5 49 0 65 -3 65 -14z"/>
<path d="M3955 2116 c-19 -14 -19 -15 6 -26 21 -9 32 -9 50 0 22 12 22 13 4
26 -24 18 -36 18 -60 0z"/>
<path d="M3940 1989 l-45 -18 69 0 c38 -1 67 0 65 2 -2 1 -13 9 -24 18 -18 14
-24 14 -65 -2z"/>
<path d="M2965 2239 c-44 -9 -97 -18 -117 -18 -41 -1 -71 -25 -64 -50 3 -9 8
-28 12 -43 6 -28 17 -33 67 -29 23 2 27 -2 27 -23 0 -24 -4 -26 -43 -26 -51 0
-67 -13 -67 -56 0 -53 8 -64 51 -64 l38 0 -14 -41 c-9 -23 -31 -72 -52 -109
-20 -38 -33 -75 -30 -83 9 -24 82 -43 102 -27 13 11 15 2 15 -81 0 -52 4 -100
9 -107 5 -9 25 -12 57 -10 l49 3 3 143 c2 125 4 142 17 132 8 -7 15 -23 15
-35 0 -52 6 -55 106 -55 94 0 94 0 94 -25 0 -24 -2 -25 -76 -25 -99 0 -114 -8
-114 -65 0 -34 5 -47 19 -55 21 -11 419 -14 459 -4 19 6 22 13 22 59 0 62 -5
65 -117 65 -71 0 -73 1 -73 25 0 24 1 24 98 27 l97 3 3 43 c5 65 -6 72 -109
72 -87 0 -89 0 -89 24 0 26 5 28 105 41 78 11 89 19 80 68 -4 23 -6 101 -5
173 1 112 -1 134 -16 148 -15 15 -41 17 -231 15 -117 -1 -216 1 -220 5 -8 7
-9 7 -108 -15z m99 -25 c15 -38 7 -52 -34 -59 l-40 -7 0 -64 0 -64 46 0 c45 0
45 0 42 -32 -3 -31 -6 -33 -45 -36 -40 -3 -54 -14 -34 -26 4 -3 28 -31 52 -62
l43 -56 -24 -20 -24 -20 -28 34 -27 33 -3 -170 -3 -170 -32 -3 -33 -3 0 158
-1 158 -30 -58 c-28 -54 -32 -58 -57 -52 -15 4 -28 8 -30 10 -2 2 17 45 42 97
25 51 48 105 52 121 6 26 5 27 -40 27 -46 0 -46 0 -46 35 l0 35 55 0 55 0 0
56 0 56 -50 -7 c-39 -5 -50 -4 -50 7 0 7 -3 23 -6 36 -6 19 -2 22 22 22 16 1
70 9 119 19 50 10 93 19 96 20 4 0 10 -6 13 -15z m446 -114 l0 -120 -200 0
-200 0 0 120 0 120 200 0 200 0 0 -120z m-430 -5 c0 -45 0 -45 -35 -45 -33 0
-35 2 -35 35 0 30 4 36 33 44 17 5 33 10 35 10 1 1 2 -19 2 -44z m135 -149
c11 -2 -10 -4 -47 -5 -38 0 -68 2 -68 7 0 7 67 6 115 -2z m299 -12 c19 -50 10
-56 -111 -70 l-63 -7 0 -53 0 -54 95 0 95 0 0 -35 0 -35 -95 0 -95 0 0 -50 0
-50 95 0 95 0 0 -35 0 -35 -225 0 -225 0 0 35 0 35 95 0 95 0 0 50 0 50 -100
0 -100 0 0 35 0 35 100 0 100 0 0 50 0 50 -85 0 c-84 0 -85 0 -85 25 0 14 0
28 0 33 0 4 71 10 157 14 87 4 174 12 193 17 51 13 57 13 64 -5z m-444 -24 c0
-11 -2 -20 -5 -20 -2 0 -9 9 -15 20 -9 16 -8 20 5 20 8 0 15 -9 15 -20z m170
-110 c0 -18 -7 -20 -64 -20 -59 0 -64 2 -59 20 5 17 14 20 64 20 52 0 59 -2
59 -20z"/>
<path d="M3170 2100 l0 -50 140 0 140 0 0 50 0 50 -140 0 -140 0 0 -50z m250
0 l0 -30 -110 0 -110 0 0 30 0 30 110 0 110 0 0 -30z"/>
<path d="M4915 2244 c-49 -7 -179 -16 -288 -20 -137 -5 -203 -11 -211 -20 -21
-20 -6 -97 22 -109 14 -6 20 -15 16 -25 -29 -68 -29 -71 -12 -83 10 -7 49 -32
88 -57 83 -52 79 -58 -46 -59 -100 -1 -118 -12 -109 -64 12 -61 26 -69 108
-61 l70 7 -24 -34 c-13 -18 -52 -63 -86 -100 -35 -36 -63 -71 -63 -77 0 -22
52 -72 75 -72 23 0 109 87 178 181 27 36 37 89 16 89 -5 0 -7 5 -4 10 3 6 19
10 36 10 l29 0 0 -129 c0 -71 3 -136 6 -145 5 -12 20 -16 59 -16 65 0 65 -1
65 173 l0 127 47 0 47 0 -27 -28 c-15 -15 -27 -33 -27 -40 0 -6 22 -36 49 -65
26 -30 67 -79 91 -110 23 -32 48 -57 54 -57 18 0 86 50 86 63 0 20 -64 110
-125 175 -46 50 -52 61 -38 67 12 4 23 -1 35 -17 45 -61 44 -60 89 -38 22 12
42 27 46 36 11 29 -135 256 -171 262 -9 2 -27 -5 -39 -15 -20 -18 -20 -17 1
14 26 38 28 71 5 88 -16 12 -13 14 22 20 70 11 115 25 116 38 2 18 -1 49 -7
75 -5 26 -34 27 -179 6z m158 -36 c2 -18 0 -36 -6 -39 -9 -6 -78 -16 -249 -34
-45 -5 -60 -11 -72 -30 -9 -13 -36 -49 -61 -79 l-45 -56 25 -16 c29 -19 30
-26 9 -59 l-16 -25 -42 34 c-22 19 -66 48 -96 67 -30 18 -57 34 -59 35 -6 5
20 64 28 64 4 0 28 -13 54 -30 l47 -29 40 53 c22 29 40 55 40 57 0 2 -52 3
-115 1 -90 -3 -115 0 -115 10 0 7 -3 23 -6 36 -6 22 -5 22 82 22 153 0 436 25
545 49 4 0 9 -14 12 -31z m-213 -106 c0 -4 -29 -44 -65 -90 l-65 -82 -23 23
-23 22 45 60 c25 33 50 63 56 67 14 10 75 10 75 0z m79 -12 l23 -20 -43 -58
c-23 -31 -60 -78 -82 -104 l-39 -48 40 0 c21 0 67 3 100 6 l62 7 -30 41 -30
41 22 17 c29 22 31 22 51 1 21 -24 127 -194 127 -204 0 -5 -13 -15 -29 -24
-29 -14 -30 -14 -50 20 l-20 35 -78 0 c-43 0 -95 -3 -115 -6 l-38 -7 0 -148 0
-149 -35 0 -35 0 0 151 0 150 -52 -5 c-29 -3 -103 -8 -165 -11 l-111 -7 -7 32
c-4 17 -5 33 -3 35 2 2 70 7 151 11 l146 7 64 76 c35 42 81 100 101 129 21 28
41 52 44 52 4 -1 18 -10 31 -20z m-335 -15 c-20 -30 -16 -30 -55 -6 l-32 20
49 4 c27 2 50 4 52 5 1 1 -5 -9 -14 -23z m328 -155 l17 -30 -45 0 -46 0 24 29
c13 17 25 30 28 30 3 1 13 -13 22 -29z m168 -335 l33 -48 -24 -18 c-13 -10
-27 -19 -30 -19 -3 0 -20 20 -38 44 -17 25 -54 70 -83 101 l-51 56 24 25 24
26 56 -60 c31 -33 71 -81 89 -107z m-487 144 c12 -7 24 -13 26 -15 6 -5 -44
-69 -117 -152 l-65 -73 -25 25 -25 25 67 72 c37 40 74 85 84 101 18 31 24 33
55 17z"/>
<path d="M1225 2223 c-12 -12 -16 -27 -12 -55 4 -32 2 -38 -13 -38 -34 0 -41
-79 -10 -108 23 -21 23 -33 13 -347 -6 -184 -5 -185 57 -185 27 0 52 5 55 10
10 16 138 12 180 -6 61 -25 86 -16 118 41 31 56 63 157 72 227 5 40 10 48 35
57 l30 10 0 -62 c0 -144 40 -276 89 -297 37 -15 76 1 96 39 8 16 20 64 26 105
13 89 7 103 -52 112 l-38 6 -3 245 c-3 203 -5 245 -18 253 -25 16 -336 13
-352 -3 -11 -12 -16 -12 -26 0 -9 9 -43 13 -122 13 -88 0 -112 -3 -125 -17z
m235 -48 l0 -35 -110 0 -110 0 0 35 0 35 110 0 110 0 0 -35z m382 -252 c2
-199 7 -294 15 -308 11 -17 12 -13 13 33 l0 53 33 -3 c27 -2 33 -8 35 -31 5
-41 -17 -133 -37 -158 -26 -32 -63 -20 -84 28 -30 66 -37 132 -44 371 l-6 232
-48 0 -49 0 0 -115 c0 -63 2 -115 4 -115 3 0 16 4 31 10 23 9 27 7 36 -17 13
-36 6 -50 -30 -58 -40 -9 -45 -18 -59 -102 -13 -77 -41 -160 -71 -210 -19 -30
-21 -31 -56 -20 -19 6 -34 13 -32 16 42 77 88 188 95 229 l9 52 -47 -6 c-45
-6 -48 -5 -54 21 -9 34 -5 38 52 50 l47 10 3 128 3 127 -46 0 c-45 0 -45 0
-45 35 l0 35 164 0 164 0 4 -287z m-342 152 l0 -35 -150 0 -150 0 0 35 0 35
150 0 150 0 0 -35z m70 -65 l0 -99 -37 -10 c-20 -6 -39 -8 -42 -6 -2 3 -3 28
-2 57 1 39 6 55 21 65 14 10 20 26 20 54 0 32 3 39 20 39 19 0 20 -7 20 -100z
m170 20 c0 -73 -2 -80 -20 -80 -18 0 -20 7 -20 80 0 73 2 80 20 80 18 0 20 -7
20 -80z m-280 -60 l0 -30 -110 0 -110 0 0 30 0 30 110 0 110 0 0 -30z m0 -100
l0 -30 -110 0 -110 0 0 30 0 30 110 0 110 0 0 -30z m15 -200 l0 -125 -85 -3
c-61 -2 -87 -7 -93 -17 -4 -8 -21 -15 -37 -15 l-30 0 0 145 0 146 123 -3 122
-3 0 -125z m70 32 c-8 -26 -22 -58 -30 -72 -13 -23 -14 -19 -15 57 l0 82 28 3
c34 4 38 -10 17 -70z"/>
<path d="M1300 1675 l0 -65 55 0 55 0 0 65 0 65 -55 0 -55 0 0 -65z m80 -5 c0
-38 -2 -40 -30 -40 -28 0 -30 2 -30 40 0 38 2 40 30 40 28 0 30 -2 30 -40z"/>
<path d="M2026 2204 c-9 -8 -16 -31 -16 -49 0 -59 15 -65 166 -65 l134 0 0
-230 0 -230 -153 0 c-106 0 -157 -4 -165 -12 -7 -7 -12 -30 -12 -53 0 -23 5
-46 12 -53 9 -9 106 -12 374 -12 199 0 369 3 378 6 12 5 16 20 16 59 0 39 -4
54 -16 59 -9 3 -81 6 -160 6 l-144 0 0 230 0 230 133 0 c90 0 137 4 145 12 7
7 12 30 12 53 0 23 -5 46 -12 53 -9 9 -99 12 -344 12 -289 0 -335 -2 -348 -16z
m674 -49 l0 -35 -145 0 -145 0 0 -260 0 -260 165 0 165 0 0 -35 0 -35 -365 0
-365 0 0 35 0 35 165 0 165 0 0 260 0 260 -150 0 -150 0 0 35 0 35 330 0 330
0 0 -35z"/>
<path d="M4826 1333 c-3 -3 -6 -17 -6 -30 0 -21 -4 -23 -47 -23 -66 0 -120
-17 -138 -43 -18 -26 -20 -80 -2 -74 6 2 12 18 12 36 1 40 26 61 72 61 32 0
33 -1 19 -22 -8 -13 -26 -63 -41 -113 -15 -49 -33 -100 -41 -112 -14 -22 -14
-22 -55 22 -22 24 -50 47 -61 51 -18 5 -17 8 11 25 64 39 15 85 -62 58 -108
-37 -116 -191 -12 -235 45 -19 71 -17 122 6 43 19 43 19 54 -1 14 -28 75 -52
108 -44 39 10 71 44 71 78 0 18 -4 27 -12 24 -7 -2 -13 -15 -13 -29 0 -63 -62
-77 -119 -27 l-36 31 27 34 c15 20 39 81 57 141 29 98 33 107 61 116 40 13 55
26 55 48 0 19 -13 32 -24 22z m-289 -188 c7 -20 1 -26 -39 -34 l-33 -7 37 -18
c52 -25 125 -105 107 -117 -24 -15 -81 -10 -114 11 -39 24 -69 81 -59 113 16
54 86 90 101 52z"/>
<path d="M3323 1284 c-7 -18 11 -39 26 -30 17 11 13 46 -4 46 -9 0 -18 -7 -22
-16z"/>
<path d="M745 1269 c-115 -33 -201 -226 -148 -329 23 -45 81 -75 129 -66 34 7
104 59 104 78 0 6 -18 -6 -40 -26 -122 -110 -211 54 -125 229 41 85 120 128
168 93 10 -7 21 -33 26 -58 5 -25 9 -35 10 -24 1 12 4 36 7 53 6 28 4 32 -29
46 -40 17 -58 17 -102 4z"/>
<path d="M2883 1266 c-43 -20 -75 -72 -68 -110 3 -16 25 -51 50 -77 56 -60 60
-97 14 -140 -52 -49 -114 -35 -133 29 -9 26 -31 29 -40 5 -10 -25 25 -67 65
-77 47 -12 111 8 148 45 25 24 31 39 31 72 0 36 -8 51 -50 100 -54 63 -56 68
-38 100 16 31 39 46 69 47 34 0 49 -17 50 -59 1 -35 1 -35 14 14 8 27 13 51
11 52 -12 12 -96 11 -123 -1z"/>
<path d="M2133 1228 c-12 -6 -25 -24 -28 -39 -5 -22 -12 -29 -31 -29 -13 0
-24 -4 -24 -10 0 -5 9 -10 20 -10 24 0 24 3 0 -90 -35 -134 -23 -152 65 -99
62 38 76 62 15 27 -57 -33 -63 -20 -38 80 20 78 22 82 49 82 15 0 31 5 34 10
4 6 -7 10 -24 10 -34 0 -35 1 -22 48 5 17 9 32 8 31 -1 0 -12 -5 -24 -11z"/>
<path d="M2568 1159 l-40 -44 7 33 c4 21 3 32 -5 32 -19 0 -64 -27 -85 -51
-20 -24 -20 -24 8 0 15 14 30 21 34 17 4 -4 -5 -54 -19 -112 -25 -104 -25
-105 -5 -102 17 2 24 17 38 70 20 81 48 122 100 149 22 11 39 25 37 31 -9 26
-31 18 -70 -23z"/>
<path d="M973 1165 c-39 -17 -81 -86 -89 -148 -6 -40 -4 -48 20 -72 22 -22 33
-26 59 -21 98 19 162 158 106 230 -23 29 -48 32 -96 11z m55 -17 c18 -18 15
-124 -4 -164 -20 -42 -60 -56 -81 -29 -16 22 -17 103 -2 142 21 56 59 79 87
51z"/>
<path d="M1174 1161 c-18 -11 -35 -25 -40 -33 -4 -7 2 -4 14 6 12 11 25 16 29
12 4 -3 -4 -51 -17 -106 -13 -55 -21 -103 -17 -106 16 -16 34 9 46 62 7 33 19
71 27 85 14 27 59 63 73 57 5 -2 -2 -46 -15 -98 -28 -116 -28 -110 -6 -110 14
0 22 17 37 76 19 77 58 134 91 134 18 0 18 0 -7 -87 -34 -121 -17 -161 43
-101 19 18 24 24 11 14 -13 -11 -26 -16 -30 -12 -4 4 4 49 17 100 32 129 17
157 -53 96 -19 -16 -36 -30 -39 -30 -2 0 -4 12 -3 28 0 23 -4 27 -25 24 -13
-1 -40 -17 -59 -35 l-33 -32 6 38 c8 43 -2 47 -50 18z"/>
<path d="M1530 1158 c-18 -13 -36 -29 -38 -37 -3 -9 6 -6 24 8 42 33 42 17 -1
-164 -29 -121 -42 -159 -58 -170 -20 -14 -16 -15 53 -14 64 1 70 2 43 10 -37
11 -38 16 -22 87 l12 49 43 -1 c32 -1 49 5 70 24 37 35 74 117 74 166 0 73
-44 81 -108 20 l-34 -31 4 35 c4 44 -15 49 -62 18z m158 -61 c5 -53 -38 -144
-71 -152 -14 -4 -34 -2 -45 4 -19 10 -20 13 -5 68 27 107 114 164 121 80z"/>
<path d="M1814 1161 c-18 -11 -35 -25 -40 -33 -4 -7 2 -5 13 5 40 35 43 13 12
-99 -11 -41 -18 -82 -15 -91 8 -20 50 -10 93 23 l32 24 3 -32 c2 -17 8 -33 14
-35 14 -5 76 38 82 57 3 10 -4 7 -20 -7 -13 -13 -27 -23 -31 -23 -16 0 -2 74
38 199 5 17 2 21 -14 21 -15 0 -23 -12 -36 -57 -9 -32 -18 -66 -21 -75 -6 -22
-61 -68 -80 -68 -19 0 -18 17 6 111 26 103 21 115 -36 80z"/>
<path d="M2330 1173 c-72 -27 -133 -172 -99 -235 14 -26 57 -19 111 19 47 32
50 52 4 24 -44 -28 -64 -26 -78 4 -14 31 -8 38 59 74 56 31 84 72 67 98 -12
19 -39 26 -64 16z m27 -29 c9 -24 -13 -62 -49 -84 -18 -10 -33 -18 -35 -17 -6
7 20 84 35 100 19 21 41 22 49 1z"/>
<path d="M3114 1161 c-40 -24 -70 -74 -85 -139 -11 -44 -10 -54 5 -77 15 -23
23 -26 48 -21 33 7 102 45 94 53 -2 3 -16 -3 -30 -12 -13 -9 -35 -15 -48 -13
-20 3 -23 10 -26 52 -6 99 41 166 97 136 24 -12 41 -6 41 15 0 29 -52 33 -96
6z"/>
<path d="M3255 1153 c-22 -15 -34 -28 -27 -31 7 -2 19 2 28 8 26 22 27 2 5
-78 -23 -80 -25 -123 -5 -129 17 -6 79 41 83 62 2 16 -1 15 -19 -7 -46 -59
-51 -29 -15 93 35 116 25 133 -50 82z"/>
<path d="M3470 1173 c-72 -27 -133 -172 -99 -235 14 -26 57 -19 111 19 47 32
50 52 4 24 -44 -28 -64 -26 -78 4 -14 31 -8 38 59 74 56 31 84 72 67 98 -12
19 -39 26 -64 16z m27 -29 c9 -24 -13 -62 -49 -84 -18 -10 -33 -18 -35 -17 -6
7 20 84 35 100 19 21 41 22 49 1z"/>
<path d="M3624 1161 c-18 -11 -35 -25 -40 -33 -4 -7 2 -5 13 5 11 9 23 17 26
17 12 0 7 -43 -13 -120 -24 -93 -24 -100 -2 -100 15 0 22 16 36 75 14 61 24
80 52 105 32 28 64 39 64 23 0 -4 -9 -40 -21 -80 -21 -76 -22 -124 -3 -130 14
-5 76 38 82 57 3 10 -4 7 -20 -7 -13 -13 -27 -23 -31 -23 -12 0 -7 41 14 110
36 119 15 146 -66 85 l-48 -37 7 36 c8 42 -3 46 -50 17z"/>
<path d="M3934 1161 c-40 -24 -70 -74 -85 -139 -11 -44 -10 -54 5 -77 15 -23
23 -26 48 -21 33 7 102 45 94 53 -2 3 -16 -3 -30 -12 -13 -9 -35 -15 -48 -13
-20 3 -23 10 -26 52 -6 99 41 166 97 136 24 -12 41 -6 41 15 0 29 -52 33 -96
6z"/>
<path d="M4160 1173 c-72 -27 -133 -172 -99 -235 14 -26 57 -19 111 19 47 32
50 52 4 24 -44 -28 -64 -26 -78 4 -14 31 -8 38 59 74 56 31 84 72 67 98 -12
19 -39 26 -64 16z m27 -29 c9 -24 -13 -62 -49 -84 -18 -10 -33 -18 -35 -17 -6
7 20 84 35 100 19 21 41 22 49 1z"/>
<path d="M705 776 c-42 -19 -73 -55 -94 -112 -17 -45 -22 -49 -55 -52 -45 -4
-47 -22 -2 -22 l33 0 -34 -132 c-45 -174 -50 -181 -116 -176 -44 2 -52 0 -55
-16 -15 -73 121 -26 165 58 10 17 31 83 49 146 l31 115 42 3 c52 4 54 22 2 22
l-40 0 16 53 c22 75 38 90 91 83 33 -4 44 -2 49 10 12 32 -32 42 -82 20z"/>
<path d="M2043 734 c-7 -18 11 -39 26 -30 17 11 13 46 -4 46 -9 0 -18 -7 -22
-16z"/>
<path d="M3723 734 c-7 -18 11 -39 26 -30 17 11 13 46 -4 46 -9 0 -18 -7 -22
-16z"/>
<path d="M4733 734 c-7 -18 11 -39 26 -30 17 11 13 46 -4 46 -9 0 -18 -7 -22
-16z"/>
<path d="M113 720 c-30 -12 -29 -18 2 -12 24 4 25 2 18 -29 -3 -19 -20 -86
-37 -149 -30 -111 -32 -115 -64 -125 -17 -5 -32 -13 -32 -17 0 -12 148 -10
155 2 4 6 -5 10 -19 10 -14 0 -26 5 -26 11 0 16 57 239 69 272 8 19 17 27 36
27 14 0 25 5 25 10 0 12 -97 12 -127 0z"/>
<path d="M2825 715 c-49 -17 -80 -52 -96 -106 -13 -43 -4 -89 18 -96 10 -4 11
10 6 57 -6 59 -5 62 27 95 30 31 84 54 96 42 6 -5 -16 -94 -52 -214 -19 -66
-30 -85 -51 -96 -23 -13 -14 -15 103 -20 152 -6 177 1 182 52 4 42 -21 38 -28
-5 -6 -32 3 -30 -135 -26 -65 2 -66 2 -54 25 7 12 20 47 29 77 l16 55 44 3
c33 3 47 -1 57 -14 12 -17 13 -17 13 2 0 10 3 30 6 44 5 21 4 22 -6 8 -8 -13
-24 -18 -59 -18 l-48 0 15 65 16 65 63 0 c57 0 63 -2 63 -21 0 -27 16 -16 22
16 l5 25 -106 0 c-65 -1 -122 -6 -146 -15z"/>
<path d="M1853 678 c-12 -6 -25 -24 -28 -39 -5 -22 -12 -29 -31 -29 -13 0 -24
-4 -24 -10 0 -5 9 -10 20 -10 24 0 24 3 0 -90 -35 -134 -23 -152 65 -99 62 38
76 62 15 27 -57 -33 -63 -20 -38 80 20 78 22 82 49 82 15 0 31 5 34 10 4 6 -7
10 -24 10 -34 0 -35 1 -22 48 5 17 9 32 8 31 -1 0 -12 -5 -24 -11z"/>
<path d="M1088 609 l-40 -44 7 33 c4 21 3 32 -5 32 -19 0 -64 -27 -85 -51 -20
-24 -20 -24 8 0 15 14 30 21 34 17 4 -4 -5 -54 -19 -112 -25 -104 -25 -105 -5
-102 17 2 24 17 38 70 20 81 48 122 100 149 22 11 39 25 37 31 -9 26 -31 18
-70 -23z"/>
<path d="M3580 639 c-8 -4 -32 -11 -52 -14 -21 -3 -51 -17 -67 -31 -62 -52
-105 -190 -66 -211 11 -7 7 -13 -19 -27 -45 -24 -62 -61 -41 -92 30 -46 127
-40 175 11 17 19 24 42 31 107 5 46 20 123 33 173 14 49 24 90 23 91 -1 1 -9
-2 -17 -7z m-47 -96 c-19 -73 -38 -110 -64 -123 -46 -25 -61 12 -38 94 14 51
50 86 88 86 l29 0 -15 -57z m-28 -150 c-2 -16 -7 -45 -10 -65 -11 -68 -95
-105 -129 -56 -13 19 -14 25 -2 43 13 20 124 104 138 105 4 0 6 -12 3 -27z"/>
<path d="M4588 609 l-40 -44 7 33 c4 21 3 32 -5 32 -19 0 -64 -27 -85 -51 -20
-24 -20 -24 8 0 15 14 30 21 34 17 4 -4 -5 -54 -19 -112 -25 -104 -25 -105 -5
-102 17 2 24 17 38 70 20 81 48 122 100 149 22 11 39 25 37 31 -9 26 -31 18
-70 -23z"/>
<path d="M5250 639 c-8 -4 -32 -11 -52 -14 -21 -3 -51 -17 -67 -31 -62 -52
-105 -190 -66 -211 11 -7 7 -13 -19 -27 -45 -24 -62 -61 -41 -92 30 -46 127
-40 175 11 17 19 24 42 31 107 5 46 20 123 33 173 14 49 24 90 23 91 -1 1 -9
-2 -17 -7z m-47 -96 c-19 -73 -38 -110 -64 -123 -46 -25 -61 12 -38 94 14 51
50 86 88 86 l29 0 -15 -57z m-28 -150 c-2 -16 -7 -45 -10 -65 -11 -68 -95
-105 -129 -56 -13 19 -14 25 -2 43 13 20 124 104 138 105 4 0 6 -12 3 -27z"/>
<path d="M294 611 c-18 -11 -35 -25 -40 -33 -4 -7 2 -5 13 5 11 9 23 17 26 17
12 0 7 -43 -13 -120 -24 -93 -24 -100 -2 -100 15 0 22 16 36 75 14 61 24 80
52 105 32 28 64 39 64 23 0 -4 -9 -40 -21 -80 -21 -76 -22 -124 -3 -130 14 -5
76 38 82 57 3 10 -4 7 -20 -7 -13 -13 -27 -23 -31 -23 -12 0 -7 41 14 110 36
119 15 146 -66 85 l-48 -37 7 36 c8 42 -3 46 -50 17z"/>
<path d="M803 615 c-39 -17 -81 -86 -89 -148 -6 -40 -4 -48 20 -72 22 -22 33
-26 59 -21 98 19 162 158 106 230 -23 29 -48 32 -96 11z m55 -17 c18 -18 15
-124 -4 -164 -20 -42 -60 -56 -81 -29 -16 22 -17 103 -2 142 21 56 59 79 87
51z"/>
<path d="M1184 611 c-18 -11 -35 -25 -40 -33 -4 -7 2 -4 14 6 12 11 25 16 29
12 4 -3 -4 -51 -17 -106 -13 -55 -21 -103 -17 -106 16 -16 34 9 46 62 7 33 19
71 27 85 14 27 59 63 73 57 5 -2 -2 -46 -15 -98 -28 -116 -28 -110 -6 -110 14
0 22 17 37 76 19 77 58 134 91 134 18 0 18 0 -7 -87 -34 -121 -17 -161 43
-101 19 18 24 24 11 14 -13 -11 -26 -16 -30 -12 -4 4 4 49 17 100 32 129 17
157 -53 96 -19 -16 -36 -30 -39 -30 -2 0 -4 12 -3 28 0 23 -4 27 -25 24 -13
-1 -40 -17 -59 -35 l-33 -32 6 38 c8 43 -2 47 -50 18z"/>
<path d="M1695 625 c-5 -2 -27 -6 -48 -10 -73 -12 -147 -105 -147 -183 0 -68
38 -78 100 -25 l30 25 -7 -33 c-6 -31 -5 -32 21 -25 31 8 86 45 86 58 0 5 -10
2 -22 -6 -12 -9 -27 -16 -32 -16 -12 0 1 87 23 160 11 33 16 60 12 59 -3 0
-10 -2 -16 -4z m-35 -47 c0 -7 -7 -37 -15 -67 -16 -61 -50 -103 -80 -99 -42 6
-27 120 22 157 28 23 73 28 73 9z"/>
<path d="M1975 603 c-22 -15 -34 -28 -27 -31 7 -2 19 2 28 8 26 22 27 2 5 -78
-23 -80 -25 -123 -5 -129 17 -6 79 41 83 62 2 16 -1 15 -19 -7 -46 -59 -51
-29 -15 93 35 116 25 133 -50 82z"/>
<path d="M2183 615 c-39 -17 -81 -86 -89 -148 -6 -40 -4 -48 20 -72 22 -22 33
-26 59 -21 98 19 162 158 106 230 -23 29 -48 32 -96 11z m55 -17 c18 -18 15
-124 -4 -164 -20 -42 -60 -56 -81 -29 -16 22 -17 103 -2 142 21 56 59 79 87
51z"/>
<path d="M2384 611 c-18 -11 -35 -25 -40 -33 -4 -7 2 -5 13 5 11 9 23 17 26
17 12 0 7 -43 -13 -120 -24 -93 -24 -100 -2 -100 15 0 22 16 36 75 14 61 24
80 52 105 32 28 64 39 64 23 0 -4 -9 -40 -21 -80 -21 -76 -22 -124 -3 -130 14
-5 76 38 82 57 3 10 -4 7 -20 -7 -13 -13 -27 -23 -31 -23 -12 0 -7 41 14 110
36 119 15 146 -66 85 l-48 -37 7 36 c8 42 -3 46 -50 17z"/>
<path d="M3164 611 c-18 -11 -35 -25 -40 -33 -4 -7 2 -5 13 5 11 9 23 17 26
17 12 0 7 -43 -13 -120 -24 -93 -24 -100 -2 -100 15 0 22 16 36 75 14 61 24
80 52 105 32 28 64 39 64 23 0 -4 -9 -40 -21 -80 -21 -76 -22 -124 -3 -130 14
-5 76 38 82 57 3 10 -4 7 -20 -7 -13 -13 -27 -23 -31 -23 -12 0 -7 41 14 110
36 119 15 146 -66 85 l-48 -37 7 36 c8 42 -3 46 -50 17z"/>
<path d="M3655 603 c-22 -15 -34 -28 -27 -31 7 -2 19 2 28 8 26 22 27 2 5 -78
-23 -80 -25 -123 -5 -129 17 -6 79 41 83 62 2 16 -1 15 -19 -7 -46 -59 -51
-29 -15 93 35 116 25 133 -50 82z"/>
<path d="M3824 611 c-18 -11 -35 -25 -40 -33 -4 -7 2 -5 13 5 11 9 23 17 26
17 12 0 7 -43 -13 -120 -24 -93 -24 -100 -2 -100 15 0 22 16 36 75 14 61 24
80 52 105 32 28 64 39 64 23 0 -4 -9 -40 -21 -80 -21 -76 -22 -124 -3 -130 14
-5 76 38 82 57 3 10 -4 7 -20 -7 -13 -13 -27 -23 -31 -23 -12 0 -7 41 14 110
36 119 15 146 -66 85 l-48 -37 7 36 c8 42 -3 46 -50 17z"/>
<path d="M4150 623 c-72 -27 -133 -172 -99 -235 14 -26 57 -19 111 19 47 32
50 52 4 24 -44 -28 -64 -26 -78 4 -14 31 -8 38 59 74 56 31 84 72 67 98 -12
19 -39 26 -64 16z m27 -29 c9 -24 -13 -62 -49 -84 -18 -10 -33 -18 -35 -17 -6
7 20 84 35 100 19 21 41 22 49 1z"/>
<path d="M4360 623 c-72 -27 -133 -172 -99 -235 14 -26 57 -19 111 19 47 32
50 52 4 24 -44 -28 -64 -26 -78 4 -14 31 -8 38 59 74 56 31 84 72 67 98 -12
19 -39 26 -64 16z m27 -29 c9 -24 -13 -62 -49 -84 -18 -10 -33 -18 -35 -17 -6
7 20 84 35 100 19 21 41 22 49 1z"/>
<path d="M4665 603 c-22 -15 -34 -28 -27 -31 7 -2 19 2 28 8 26 22 27 2 5 -78
-23 -80 -25 -123 -5 -129 17 -6 79 41 83 62 2 16 -1 15 -19 -7 -46 -59 -51
-29 -15 93 35 116 25 133 -50 82z"/>
<path d="M4824 611 c-18 -11 -35 -25 -40 -33 -4 -7 2 -5 13 5 11 9 23 17 26
17 12 0 7 -43 -13 -120 -24 -93 -24 -100 -2 -100 15 0 22 16 36 75 14 61 24
80 52 105 32 28 64 39 64 23 0 -4 -9 -40 -21 -80 -21 -76 -22 -124 -3 -130 14
-5 76 38 82 57 3 10 -4 7 -20 -7 -13 -13 -27 -23 -31 -23 -12 0 -7 41 14 110
36 119 15 146 -66 85 l-48 -37 7 36 c8 42 -3 46 -50 17z"/>
</g>
</svg>
