<?xml version="1.0" encoding="UTF-8"?>
<!DOCTYPE svg PUBLIC "-//W3C//DTD SVG 1.1//EN" "http://www.w3.org/Graphics/SVG/1.1/DTD/svg11.dtd">
<svg xmlns="http://www.w3.org/2000/svg" version="1.1" width="544px" height="260px" style="shape-rendering:geometricPrecision; text-rendering:geometricPrecision; image-rendering:optimizeQuality; fill-rule:evenodd; clip-rule:evenodd" xmlns:xlink="http://www.w3.org/1999/xlink">
<g><path style="opacity:1" fill="#fcfcfc" d="M -0.5,-0.5 C 180.833,-0.5 362.167,-0.5 543.5,-0.5C 543.5,86.1667 543.5,172.833 543.5,259.5C 362.167,259.5 180.833,259.5 -0.5,259.5C -0.5,246.833 -0.5,234.167 -0.5,221.5C 4.8746,221.828 10.2079,221.495 15.5,220.5C 13.9547,219.548 12.288,219.215 10.5,219.5C 12.1588,209.022 14.8255,198.855 18.5,189C 25.1013,187.764 24.9347,186.931 18,186.5C 15.0746,186.523 12.2413,187.023 9.5,188C 10.8333,188.333 12.1667,188.667 13.5,189C 11.4149,198.834 8.7482,208.501 5.5,218C 3.65472,219.128 1.65472,219.628 -0.5,219.5C -0.5,146.167 -0.5,72.8333 -0.5,-0.5 Z"/></g>
<g><path style="opacity:1" fill="#111111" d="M 84.5,106.5 C 84.5,105.167 84.5,103.833 84.5,102.5C 79.1667,102.5 73.8333,102.5 68.5,102.5C 68.5,103.5 68.5,104.5 68.5,105.5C 67.9423,106.79 66.9423,107.623 65.5,108C 60.4565,109.178 55.4565,110.511 50.5,112C 40.5924,115.091 36.7591,111.591 39,101.5C 41.3333,100.833 43.6667,100.167 46,99.5C 46.4998,88.8385 46.6665,78.1719 46.5,67.5C 39.8468,68.1997 36.6801,65.1997 37,58.5C 42.6699,55.7446 48.1699,52.5779 53.5,49C 48.78,48.7787 44.1133,48.2787 39.5,47.5C 38.343,44.2156 38.1764,40.8823 39,37.5C 45.7524,36.3555 52.5857,36.1888 59.5,37C 60.8932,38.1711 61.7265,39.6711 62,41.5C 64.0383,38.1283 66.705,35.4616 70,33.5C 72.8192,33.9931 75.3192,35.1597 77.5,37C 88.1667,37.3333 98.8333,37.6667 109.5,38C 111.557,39.7194 113.224,41.7194 114.5,44C 112.434,47.9706 109.767,51.4706 106.5,54.5C 108.766,55.3142 111.1,55.8142 113.5,56C 114.574,56.7387 115.241,57.7387 115.5,59C 114.344,61.6333 113.344,64.3 112.5,67C 110.527,67.4955 108.527,67.6621 106.5,67.5C 106.5,78.1667 106.5,88.8333 106.5,99.5C 114.562,100.471 116.562,104.638 112.5,112C 108.818,112.222 105.152,111.889 101.5,111C 95.5803,109.915 89.9136,108.415 84.5,106.5 Z"/></g>
<g><path style="opacity:1" fill="#151515" d="M 414.5,83.5 C 413.527,83.9867 412.527,84.4867 411.5,85C 417.491,85.4995 423.491,85.6662 429.5,85.5C 430.496,85.4142 431.329,85.7476 432,86.5C 433.023,90.3169 432.523,93.8169 430.5,97C 423.508,97.4996 416.508,97.6663 409.5,97.5C 409.059,108.272 403.393,113.605 392.5,113.5C 387.764,113.088 383.43,111.588 379.5,109C 378.308,105.756 378.641,102.59 380.5,99.5C 381.333,99.1667 382.167,98.8333 383,98.5C 386.263,99.6983 389.596,100.698 393,101.5C 395.756,101.576 396.923,100.243 396.5,97.5C 385.162,97.6665 373.828,97.4999 362.5,97C 360.243,93.7623 359.91,90.2623 361.5,86.5C 370.816,85.6679 380.149,85.1679 389.5,85C 388.663,83.9887 388.33,82.8221 388.5,81.5C 384.486,81.6655 380.486,81.4988 376.5,81C 375.244,80.5831 374.577,79.7498 374.5,78.5C 374.5,76.1667 374.5,73.8333 374.5,71.5C 372.585,71.2155 370.919,71.5489 369.5,72.5C 370.831,81.9984 366.997,84.9984 358,81.5C 357.333,74.8333 357.333,68.1667 358,61.5C 359.11,59.9632 360.61,59.2965 362.5,59.5C 362.334,51.8261 362.5,44.1594 363,36.5C 363.5,36 364,35.5 364.5,35C 370.714,34.4525 376.881,33.6192 383,32.5C 384.987,33.1536 386.32,34.487 387,36.5C 389.803,32.8421 392.97,32.5088 396.5,35.5C 399.248,33.7087 402.248,33.2087 405.5,34C 406.047,34.9246 406.713,35.7579 407.5,36.5C 411.144,35.2416 414.977,34.5749 419,34.5C 422.5,34.8333 426,35.1667 429.5,35.5C 430.304,43.7851 430.804,52.1185 431,60.5C 432.667,61.5 434.333,62.5 436,63.5C 436.595,70.3403 435.428,76.8403 432.5,83C 423.298,84.2188 420.298,80.3855 423.5,71.5C 421.143,71.3367 418.81,71.5034 416.5,72C 422.5,77.2859 421.834,81.1193 414.5,83.5 Z"/></g>
<g><path style="opacity:1" fill="#161616" d="M 470.5,84.5 C 468.307,83.2031 465.973,83.2031 463.5,84.5C 463.624,85.1067 463.957,85.44 464.5,85.5C 465.97,88.686 465.47,91.686 463,94.5C 457.833,100.333 452.667,106.167 447.5,112C 442.344,112.539 439.01,110.206 437.5,105C 443.102,99.2409 448.102,93.0743 452.5,86.5C 453.289,86.2172 453.956,85.7172 454.5,85C 449.511,84.5007 444.511,84.3341 439.5,84.5C 437.947,81.983 436.947,79.1497 436.5,76C 436.759,74.7387 437.426,73.7387 438.5,73C 445.579,72.8855 452.579,72.2189 459.5,71C 454.254,67.1254 448.754,63.6254 443,60.5C 442.62,57.2323 443.454,54.2323 445.5,51.5C 443.807,50.7717 442.307,49.7717 441,48.5C 440.211,44.9085 440.378,41.4085 441.5,38C 462.282,37.9679 482.949,36.4679 503.5,33.5C 505.641,33.6132 507.475,34.2799 509,35.5C 509.821,38.5541 509.655,41.5541 508.5,44.5C 504.258,45.7494 499.925,46.5827 495.5,47C 495.167,47.3333 494.833,47.6667 494.5,48C 498.359,51.4078 498.359,54.9078 494.5,58.5C 494.667,58.8333 494.833,59.1667 495,59.5C 498.671,56.6044 501.671,57.271 504,61.5C 508.805,68.2731 512.971,75.4398 516.5,83C 513.776,87.4488 509.942,88.9488 505,87.5C 504.205,84.8848 502.705,82.8848 500.5,81.5C 499.263,81.5565 498.263,82.0565 497.5,83C 503.926,89.3683 509.759,96.2016 515,103.5C 515.667,104.833 515.667,106.167 515,107.5C 512.419,110.455 509.253,111.955 505.5,112C 499.786,104.742 493.953,97.5749 488,90.5C 488.088,87.3578 489.588,84.8578 492.5,83C 489.518,82.502 486.518,82.3354 483.5,82.5C 483.666,91.8393 483.5,101.173 483,110.5C 481.302,111.733 479.302,112.4 477,112.5C 474.698,112.4 472.698,111.733 471,110.5C 470.5,101.84 470.334,93.1731 470.5,84.5 Z"/></g>
<g><path style="opacity:1" fill="#111111" d="M 352.5,93.5 C 346.833,93.5 341.167,93.5 335.5,93.5C 335.5,95.5 335.5,97.5 335.5,99.5C 341.167,99.5 346.833,99.5 352.5,99.5C 353.787,100.871 354.453,102.705 354.5,105C 354.4,107.302 353.733,109.302 352.5,111C 337.167,111.667 321.833,111.667 306.5,111C 304.972,109.352 304.305,107.352 304.5,105C 304.305,102.648 304.972,100.648 306.5,99C 312.157,98.5006 317.824,98.3339 323.5,98.5C 323.5,96.8333 323.5,95.1667 323.5,93.5C 317.132,93.8297 310.798,93.4963 304.5,92.5C 303.933,90.0177 303.266,87.6843 302.5,85.5C 302.217,84.7109 301.717,84.0442 301,83.5C 300.5,92.4938 300.334,101.494 300.5,110.5C 300.389,111.117 300.056,111.617 299.5,112C 296.118,112.824 292.784,112.657 289.5,111.5C 288.704,104.883 288.204,98.2167 288,91.5C 287.261,92.5742 286.261,93.2409 285,93.5C 282.416,92.8963 279.916,92.0629 277.5,91C 276.941,90.2753 276.608,89.4419 276.5,88.5C 280.087,81.6573 283.421,74.6573 286.5,67.5C 283.833,66.8333 281.167,66.1667 278.5,65.5C 275.461,56.2025 278.794,52.5358 288.5,54.5C 288.5,52.8333 288.5,51.1667 288.5,49.5C 285.5,49.5 282.5,49.5 279.5,49.5C 278.483,45.6059 278.483,41.7725 279.5,38C 287.869,37.4348 296.036,35.9348 304,33.5C 305.559,34.0294 307.059,34.696 308.5,35.5C 322.455,34.3511 336.455,34.1844 350.5,35C 351.667,35.5 352.5,36.3333 353,37.5C 353.803,45.8822 353.636,54.2155 352.5,62.5C 354.195,65.6703 354.695,69.0037 354,72.5C 347.987,74.4201 341.82,75.7534 335.5,76.5C 335.5,78.1667 335.5,79.8333 335.5,81.5C 341.509,81.3338 347.509,81.5005 353.5,82C 355.523,85.1831 356.023,88.6831 355,92.5C 354.329,93.2524 353.496,93.5858 352.5,93.5 Z"/></g>
<g><path style="opacity:1" fill="#151515" d="M 174.5,84.5 C 174.813,81.7531 174.48,79.0865 173.5,76.5C 172.893,76.6236 172.56,76.9569 172.5,77.5C 171.178,77.33 170.011,77.6634 169,78.5C 167.838,90.3335 164.005,101.167 157.5,111C 151.33,110.339 145.164,109.506 139,108.5C 134.303,108.439 129.803,109.106 125.5,110.5C 123.833,110.167 122.167,109.833 120.5,109.5C 119.857,104.383 119.524,99.2159 119.5,94C 119.443,84.8639 120.109,76.0306 121.5,67.5C 120.88,61.9614 119.213,56.9614 116.5,52.5C 116.069,49.6068 117.069,47.6068 119.5,46.5C 121.388,44.0122 122.055,41.0122 121.5,37.5C 121.611,36.8826 121.944,36.3826 122.5,36C 130.5,35.3333 138.5,35.3333 146.5,36C 147.656,37.6149 148.989,37.6149 150.5,36C 161.88,35.1888 173.213,35.3554 184.5,36.5C 185.192,37.0253 185.692,37.6919 186,38.5C 186.5,54.4965 186.667,70.4965 186.5,86.5C 189.166,86.933 191.832,87.433 194.5,88C 195.944,89.126 196.61,90.626 196.5,92.5C 196.293,98.8485 194.793,104.848 192,110.5C 185.183,115.408 180.516,113.741 178,105.5C 175.881,98.6479 174.714,91.6479 174.5,84.5 Z"/></g>
<g><path style="opacity:1" fill="#eff1ef" d="M 104.5,64.5 C 103.07,63.4625 101.403,62.7959 99.5,62.5C 93.0839,60.2582 87.5839,56.5915 83,51.5C 78.1871,57.4867 72.0205,61.1534 64.5,62.5C 63.5,62.5 62.5,62.5 61.5,62.5C 60.2702,60.7028 59.6036,58.7028 59.5,56.5C 67.4232,56.4725 73.7565,53.3058 78.5,47C 75.5,46.3333 72.5,46.3333 69.5,47C 67.6499,49.0176 65.6499,50.8509 63.5,52.5C 61.5487,50.7711 60.382,48.7711 60,46.5C 64.3567,43.6435 67.8567,39.9768 70.5,35.5C 72.3885,36.604 74.0552,37.9373 75.5,39.5C 86.4849,40.3324 97.4849,40.8324 108.5,41C 109.687,42.0195 110.687,43.1861 111.5,44.5C 108.727,48.7767 105.393,52.61 101.5,56C 104.789,56.8816 108.123,57.5483 111.5,58C 112.333,60.0811 112.333,62.2478 111.5,64.5C 109.167,64.5 106.833,64.5 104.5,64.5 Z"/></g>
<g><path style="opacity:1" fill="#f0f2f0" d="M 371.5,53.5 C 374.962,54.4816 378.629,54.815 382.5,54.5C 382.5,56.1667 382.5,57.8333 382.5,59.5C 378.833,59.5 375.167,59.5 371.5,59.5C 371.5,60.5 371.5,61.5 371.5,62.5C 381.839,62.6665 392.172,62.4998 402.5,62C 400.714,61.2155 399.214,60.0488 398,58.5C 392.935,62.7771 388.768,62.2771 385.5,57C 387.715,55.9562 390.048,55.2895 392.5,55C 389.18,53.7387 388.846,52.072 391.5,50C 388.216,50.184 386.216,48.684 385.5,45.5C 387.287,44.684 388.954,43.684 390.5,42.5C 387.781,39.8114 388.281,37.8114 392,36.5C 394.058,37.1117 395.891,38.1117 397.5,39.5C 399.167,38.1667 400.833,36.8333 402.5,35.5C 406.938,37.4359 407.272,39.6025 403.5,42C 404.687,43.0195 405.687,44.1861 406.5,45.5C 403.92,47.9556 403.92,50.4556 406.5,53C 405.5,53.8333 404.5,54.6667 403.5,55.5C 406.926,57.2595 407.259,59.4262 404.5,62C 410.157,62.4994 415.824,62.6661 421.5,62.5C 421.5,61.5 421.5,60.5 421.5,59.5C 417.5,59.5 413.5,59.5 409.5,59.5C 409.5,57.5 409.5,55.5 409.5,53.5C 425.5,52.8333 425.5,52.1667 409.5,51.5C 409.5,49.5 409.5,47.5 409.5,45.5C 413.5,45.5 417.5,45.5 421.5,45.5C 421.5,44.5 421.5,43.5 421.5,42.5C 417.833,42.5 414.167,42.5 410.5,42.5C 410.5,40.5 410.5,38.5 410.5,36.5C 416.167,36.5 421.833,36.5 427.5,36.5C 427.169,45.1922 427.502,53.8589 428.5,62.5C 432.269,63.2713 433.936,65.6047 433.5,69.5C 433.246,73.2564 432.579,76.9231 431.5,80.5C 428.62,80.9675 426.287,80.1341 424.5,78C 425.361,74.8632 426.027,71.6965 426.5,68.5C 406.5,68.5 386.5,68.5 366.5,68.5C 366.5,72.1667 366.5,75.8333 366.5,79.5C 364.5,79.5 362.5,79.5 360.5,79.5C 360.5,73.8333 360.5,68.1667 360.5,62.5C 362.167,62.5 363.833,62.5 365.5,62.5C 365.5,53.8333 365.5,45.1667 365.5,36.5C 371.535,36.4059 377.535,36.2392 383.5,36C 385.245,37.692 385.578,39.5253 384.5,41.5C 380.235,42.4386 375.902,42.7719 371.5,42.5C 371.5,43.5 371.5,44.5 371.5,45.5C 375.5,45.5 379.5,45.5 383.5,45.5C 383.5,47.5 383.5,49.5 383.5,51.5C 379.029,50.9106 375.029,51.5772 371.5,53.5 Z"/></g>
<g><path style="opacity:1" fill="#e9ebe9" d="M 502.5,35.5 C 503.833,35.5 505.167,35.5 506.5,35.5C 507.45,38.0679 507.45,40.5679 506.5,43C 496.131,44.0585 485.798,45.3919 475.5,47C 471.88,52.2886 467.88,57.2886 463.5,62C 469.517,64.7171 470.017,68.2171 465,72.5C 459.611,67.2193 453.444,63.0526 446.5,60C 445.524,57.8531 445.691,55.6864 447,53.5C 447.561,52.9781 448.228,52.6448 449,52.5C 452.262,54.0926 455.262,56.0926 458,58.5C 461.624,54.9243 464.291,50.9243 466,46.5C 458.558,47.813 451.058,47.813 443.5,46.5C 442.652,44.5914 442.318,42.5914 442.5,40.5C 454.508,40.2627 466.508,39.7627 478.5,39C 486.735,38.4736 494.735,37.3069 502.5,35.5 Z"/></g>
<g><path style="opacity:1" fill="#0f0f0f" d="M 202.5,37.5 C 225.169,37.3334 247.836,37.5 270.5,38C 272.028,39.6477 272.695,41.6477 272.5,44C 272.695,46.3523 272.028,48.3523 270.5,50C 261.506,50.4998 252.506,50.6664 243.5,50.5C 243.5,65.8333 243.5,81.1667 243.5,96.5C 253.506,96.3335 263.506,96.5002 273.5,97C 274.733,98.6977 275.4,100.698 275.5,103C 275.167,104.833 274.833,106.667 274.5,108.5C 249.543,109.657 224.543,109.824 199.5,109C 197.477,105.817 196.977,102.317 198,98.5C 198.5,98 199,97.5 199.5,97C 209.828,96.5002 220.161,96.3335 230.5,96.5C 230.5,81.1667 230.5,65.8333 230.5,50.5C 221.161,50.6665 211.827,50.4998 202.5,50C 199.87,45.8344 199.87,41.6678 202.5,37.5 Z"/></g>
<g><path style="opacity:1" fill="#eef0ee" d="M 299.5,76.5 C 299.217,75.7109 298.717,75.0442 298,74.5C 297.5,86.1619 297.333,97.8286 297.5,109.5C 295.5,109.5 293.5,109.5 291.5,109.5C 291.666,99.4944 291.5,89.4944 291,79.5C 289.294,83.0788 287.461,86.5788 285.5,90C 283.087,90.4838 280.754,90.1505 278.5,89C 283.372,81.7551 287.039,73.9217 289.5,65.5C 286.572,64.5159 283.572,64.1826 280.5,64.5C 280.5,62.1667 280.5,59.8333 280.5,57.5C 284.167,57.5 287.833,57.5 291.5,57.5C 291.5,53.8333 291.5,50.1667 291.5,46.5C 288.193,47.0508 284.86,47.3841 281.5,47.5C 281.326,45.139 280.993,42.8056 280.5,40.5C 288.449,39.8643 296.283,38.531 304,36.5C 304.772,36.6448 305.439,36.9781 306,37.5C 306.495,39.4727 306.662,41.4727 306.5,43.5C 303.873,44.0916 301.206,44.4249 298.5,44.5C 298.5,48.8333 298.5,53.1667 298.5,57.5C 301.5,57.5 304.5,57.5 307.5,57.5C 307.5,59.8333 307.5,62.1667 307.5,64.5C 304.428,64.1826 301.428,64.5159 298.5,65.5C 301.096,69.0191 303.929,72.3525 307,75.5C 309.009,78.8899 308.009,81.2233 304,82.5C 301.898,80.9052 300.398,78.9052 299.5,76.5 Z"/></g>
<g><path style="opacity:1" fill="#727372" d="M 58.5,39.5 C 52.8333,39.5 47.1667,39.5 41.5,39.5C 41.5,41.5 41.5,43.5 41.5,45.5C 40.5318,43.3926 40.1984,41.0593 40.5,38.5C 46.69,38.1771 52.69,38.5104 58.5,39.5 Z"/></g>
<g><path style="opacity:1" fill="#edefed" d="M 150.5,38.5 C 161.5,38.5 172.5,38.5 183.5,38.5C 183.333,53.5037 183.5,68.5037 184,83.5C 184.159,88.9162 184.826,94.2496 186,99.5C 186.498,96.1832 186.665,92.8499 186.5,89.5C 188.833,89.5 191.167,89.5 193.5,89.5C 194.035,96.1738 192.868,102.507 190,108.5C 186.354,111.341 183.354,110.674 181,106.5C 178.699,99.6945 177.366,92.6945 177,85.5C 176.5,72.1708 176.333,58.8375 176.5,45.5C 173.167,45.5 169.833,45.5 166.5,45.5C 166.169,53.1955 166.503,60.8622 167.5,68.5C 173.29,65.6342 175.29,67.4675 173.5,74C 171.129,74.7348 168.795,75.5682 166.5,76.5C 165.879,88.6694 162.045,99.6694 155,109.5C 152.657,108.873 150.49,107.873 148.5,106.5C 153.771,98.9553 157.105,90.622 158.5,81.5C 158.167,80.5 157.833,79.5 157.5,78.5C 152.368,80.643 149.034,79.143 147.5,74C 150.984,72.3985 154.651,71.2318 158.5,70.5C 159.498,62.1932 159.831,53.8599 159.5,45.5C 156.5,45.5 153.5,45.5 150.5,45.5C 150.5,43.1667 150.5,40.8333 150.5,38.5 Z"/></g>
<g><path style="opacity:1" fill="#f3f5f3" d="M 310.5,37.5 C 323.833,37.5 337.167,37.5 350.5,37.5C 350.5,45.5 350.5,53.5 350.5,61.5C 337.167,61.5 323.833,61.5 310.5,61.5C 310.5,53.5 310.5,45.5 310.5,37.5 Z"/></g>
<g><path style="opacity:1" fill="#f8fbf8" d="M 58.5,39.5 C 58.5,41.5 58.5,43.5 58.5,45.5C 52.8333,45.5 47.1667,45.5 41.5,45.5C 41.5,43.5 41.5,41.5 41.5,39.5C 47.1667,39.5 52.8333,39.5 58.5,39.5 Z"/></g>
<g><path style="opacity:1" fill="#636363" d="M 121.5,37.5 C 122.055,41.0122 121.388,44.0122 119.5,46.5C 120.088,43.3896 120.755,40.3896 121.5,37.5 Z"/></g>
<g><path style="opacity:1" fill="#e5e7e5" d="M 123.5,38.5 C 130.833,38.5 138.167,38.5 145.5,38.5C 145.5,40.8333 145.5,43.1667 145.5,45.5C 138.167,45.5 130.833,45.5 123.5,45.5C 123.5,43.1667 123.5,40.8333 123.5,38.5 Z"/></g>
<g><path style="opacity:1" fill="#f8faf8" d="M 203.5,40.5 C 225.5,40.5 247.5,40.5 269.5,40.5C 269.5,42.8333 269.5,45.1667 269.5,47.5C 259.833,47.5 250.167,47.5 240.5,47.5C 240.5,64.8333 240.5,82.1667 240.5,99.5C 251.5,99.5 262.5,99.5 273.5,99.5C 273.5,101.833 273.5,104.167 273.5,106.5C 249.167,106.5 224.833,106.5 200.5,106.5C 200.5,104.167 200.5,101.833 200.5,99.5C 211.5,99.5 222.5,99.5 233.5,99.5C 233.5,82.1667 233.5,64.8333 233.5,47.5C 223.5,47.5 213.5,47.5 203.5,47.5C 203.5,45.1667 203.5,42.8333 203.5,40.5 Z"/></g>
<g><path style="opacity:1" fill="#8f908f" d="M 316.5,43.5 C 325.833,43.5 335.167,43.5 344.5,43.5C 344.5,47.5 344.5,51.5 344.5,55.5C 335.167,55.5 325.833,55.5 316.5,55.5C 316.5,51.5 316.5,47.5 316.5,43.5 Z"/></g>
<g><path style="opacity:1" fill="#060706" d="M 317.5,44.5 C 326.167,44.5 334.833,44.5 343.5,44.5C 343.5,47.8333 343.5,51.1667 343.5,54.5C 334.833,54.5 326.167,54.5 317.5,54.5C 317.5,51.1667 317.5,47.8333 317.5,44.5 Z"/></g>
<g><path style="opacity:1" fill="#111111" d="M 87.5,47.5 C 91.6463,46.353 95.9796,46.1864 100.5,47C 99.1667,48.3333 97.8333,49.6667 96.5,51C 97.8333,52.3333 99.1667,53.6667 100.5,55C 95.3434,54.0836 91.01,51.5836 87.5,47.5 Z"/></g>
<g><path style="opacity:1" fill="#f9f9f9" d="M 301.5,54.5 C 301.279,51.7212 301.612,49.0545 302.5,46.5C 303.93,46.5792 305.264,46.2458 306.5,45.5C 307.484,48.4281 307.817,51.4281 307.5,54.5C 305.5,54.5 303.5,54.5 301.5,54.5 Z"/></g>
<g><path style="opacity:1" fill="#939393" d="M 319.5,46.5 C 326.833,46.5 334.167,46.5 341.5,46.5C 341.5,48.5 341.5,50.5 341.5,52.5C 334.167,52.5 326.833,52.5 319.5,52.5C 319.5,50.5 319.5,48.5 319.5,46.5 Z"/></g>
<g><path style="opacity:1" fill="#1b1b1b" d="M 396.5,46.5 C 404.462,48.3485 404.462,49.8485 396.5,51C 392.736,49.5787 392.736,48.0787 396.5,46.5 Z"/></g>
<g><path style="opacity:1" fill="#484848" d="M 173.5,48.5 C 172.167,48.5 170.833,48.5 169.5,48.5C 169.5,53.8333 169.5,59.1667 169.5,64.5C 168.5,59.5968 168.167,53.9302 168.5,47.5C 171.041,47.1486 172.708,47.4819 173.5,48.5 Z"/></g>
<g><path style="opacity:1" fill="#848484" d="M 302.5,46.5 C 301.612,49.0545 301.279,51.7212 301.5,54.5C 300.844,53.3784 300.511,52.0451 300.5,50.5C 300.585,48.6672 301.252,47.3339 302.5,46.5 Z"/></g>
<g><path style="opacity:1" fill="#fefffe" d="M 320.5,47.5 C 327.167,47.5 333.833,47.5 340.5,47.5C 340.5,48.8333 340.5,50.1667 340.5,51.5C 333.833,51.5 327.167,51.5 320.5,51.5C 320.5,50.1667 320.5,48.8333 320.5,47.5 Z"/></g>
<g><path style="opacity:1" fill="#919291" d="M 119.5,49.5 C 129.653,48.5058 139.986,48.1724 150.5,48.5C 150.802,51.0593 150.468,53.3926 149.5,55.5C 149.5,53.5 149.5,51.5 149.5,49.5C 139.5,49.5 129.5,49.5 119.5,49.5 Z"/></g>
<g><path style="opacity:1" fill="#f1f1f1" d="M 152.5,48.5 C 153.833,48.5 155.167,48.5 156.5,48.5C 156.666,55.175 156.5,61.8417 156,68.5C 153.618,69.5541 151.118,70.2208 148.5,70.5C 147.242,65.2506 148.409,60.5839 152,56.5C 152.497,53.854 152.664,51.1873 152.5,48.5 Z"/></g>
<g><path style="opacity:1" fill="#fbfbfb" d="M 173.5,48.5 C 173.5,53.8333 173.5,59.1667 173.5,64.5C 172.167,64.5 170.833,64.5 169.5,64.5C 169.5,59.1667 169.5,53.8333 169.5,48.5C 170.833,48.5 172.167,48.5 173.5,48.5 Z"/></g>
<g><path style="opacity:1" fill="#f7f9f7" d="M 119.5,49.5 C 129.5,49.5 139.5,49.5 149.5,49.5C 149.5,51.5 149.5,53.5 149.5,55.5C 139.5,55.5 129.5,55.5 119.5,55.5C 119.5,53.5 119.5,51.5 119.5,49.5 Z"/></g>
<g><path style="opacity:1" fill="#eeeeee" d="M 477.5,48.5 C 480.247,48.1866 482.914,48.52 485.5,49.5C 481.571,55.5986 477.071,61.2652 472,66.5C 471.167,64.3333 469.667,62.8333 467.5,62C 471.436,57.9041 474.77,53.4041 477.5,48.5 Z"/></g>
<g><path style="opacity:1" fill="#eff1ef" d="M 486.5,73.5 C 490.884,73.8256 495.217,73.4922 499.5,72.5C 499.376,71.8933 499.043,71.56 498.5,71.5C 497.055,68.8818 495.389,66.3818 493.5,64C 495.167,62.8333 496.833,61.6667 498.5,60.5C 504.97,66.7556 509.97,74.0889 513.5,82.5C 511.971,84.1881 510.137,85.5214 508,86.5C 506.623,84.2462 505.123,82.0795 503.5,80C 495.826,79.5956 488.159,79.7622 480.5,80.5C 479.506,89.9856 479.173,99.6522 479.5,109.5C 477.5,109.5 475.5,109.5 473.5,109.5C 473.666,99.8276 473.5,90.1609 473,80.5C 463.225,81.2301 453.391,81.8968 443.5,82.5C 440.013,81.5733 438.68,79.2399 439.5,75.5C 449.487,74.8701 459.487,74.3701 469.5,74C 476.719,65.6208 483.719,57.1208 490.5,48.5C 492.167,49.8333 493.833,51.1667 495.5,52.5C 490.529,59.6051 485.196,66.4384 479.5,73C 481.81,73.4966 484.143,73.6633 486.5,73.5 Z"/></g>
<g><path style="opacity:1" fill="#e6e6e6" d="M 451.5,51.5 C 454.304,50.3622 457.304,50.1955 460.5,51C 459.845,52.4866 458.845,53.6533 457.5,54.5C 455.757,52.9617 453.757,51.9617 451.5,51.5 Z"/></g>
<g><path style="opacity:1" fill="#121212" d="M 99.5,62.5 C 87.8333,63.8333 76.1667,63.8333 64.5,62.5C 72.0205,61.1534 78.1871,57.4867 83,51.5C 87.5839,56.5915 93.0839,60.2582 99.5,62.5 Z"/></g>
<g><path style="opacity:1" fill="#e7e9e7" d="M 59.5,56.5 C 56.1292,58.8458 52.7959,61.1792 49.5,63.5C 47.2133,63.7239 45.0466,64.3906 43,65.5C 40.7766,63.7198 39.6099,61.3865 39.5,58.5C 45.2295,57.3847 50.3962,55.0514 55,51.5C 57.401,52.3988 58.901,54.0655 59.5,56.5 Z"/></g>
<g><path style="opacity:1" fill="#979897" d="M 371.5,53.5 C 375.5,53.5 379.5,53.5 383.5,53.5C 383.795,55.7354 383.461,57.7354 382.5,59.5C 382.5,57.8333 382.5,56.1667 382.5,54.5C 378.629,54.815 374.962,54.4816 371.5,53.5 Z"/></g>
<g><path style="opacity:1" fill="#121212" d="M 59.5,56.5 C 59.6036,58.7028 60.2702,60.7028 61.5,62.5C 57.7016,63.4834 53.7016,63.8168 49.5,63.5C 52.7959,61.1792 56.1292,58.8458 59.5,56.5 Z"/></g>
<g><path style="opacity:1" fill="#f8fbf8" d="M 123.5,59.5 C 130.833,59.5 138.167,59.5 145.5,59.5C 145.5,61.5 145.5,63.5 145.5,65.5C 138.167,65.5 130.833,65.5 123.5,65.5C 123.5,63.5 123.5,61.5 123.5,59.5 Z"/></g>
<g><path style="opacity:1" fill="#cacaca" d="M 82.5,55.5 C 84.7361,57.8933 87.4027,59.7266 90.5,61C 85.8333,61.6667 81.1667,61.6667 76.5,61C 78.9962,59.669 80.9962,57.8356 82.5,55.5 Z"/></g>
<g><path style="opacity:1" fill="#787978" d="M 61.5,62.5 C 62.5,62.5 63.5,62.5 64.5,62.5C 76.1667,63.8333 87.8333,63.8333 99.5,62.5C 101.403,62.7959 103.07,63.4625 104.5,64.5C 104.828,76.3453 104.495,88.012 103.5,99.5C 103.5,87.8333 103.5,76.1667 103.5,64.5C 85.5,64.5 67.5,64.5 49.5,64.5C 49.5,64.1667 49.5,63.8333 49.5,63.5C 53.7016,63.8168 57.7016,63.4834 61.5,62.5 Z"/></g>
<g><path style="opacity:1" fill="#484848" d="M 311.5,63.5 C 320.506,63.3336 329.506,63.5002 338.5,64C 333.492,64.5008 328.492,65.0008 323.5,65.5C 319.5,64.8333 315.5,64.1667 311.5,63.5 Z"/></g>
<g><path style="opacity:1" fill="#8c8d8c" d="M 360.5,62.5 C 360.5,68.1667 360.5,73.8333 360.5,79.5C 362.5,79.5 364.5,79.5 366.5,79.5C 364.393,80.4682 362.059,80.8016 359.5,80.5C 359.177,74.31 359.51,68.31 360.5,62.5 Z"/></g>
<g><path style="opacity:1" fill="#edefed" d="M 49.5,64.5 C 67.5,64.5 85.5,64.5 103.5,64.5C 103.5,76.1667 103.5,87.8333 103.5,99.5C 92.9306,99.5245 92.9306,100.191 103.5,101.5C 106.216,101.678 108.883,102.178 111.5,103C 112.333,105.081 112.333,107.248 111.5,109.5C 103.501,108.401 95.5013,107.234 87.5,106C 86.8617,104.293 86.8617,102.46 87.5,100.5C 79.9902,99.1801 72.3235,99.1801 64.5,100.5C 64.6236,101.107 64.9569,101.44 65.5,101.5C 65.67,102.822 65.3366,103.989 64.5,105C 57.0969,107.934 49.4302,109.767 41.5,110.5C 40.9426,108.051 40.9426,105.718 41.5,103.5C 45.4233,102.402 49.4233,101.735 53.5,101.5C 54.766,100.91 56.0993,100.41 57.5,100C 54.854,99.5026 52.1873,99.3359 49.5,99.5C 49.5,87.8333 49.5,76.1667 49.5,64.5 Z"/></g>
<g><path style="opacity:1" fill="#8b8b8b" d="M 311.5,63.5 C 315.5,64.1667 319.5,64.8333 323.5,65.5C 318.786,65.8266 314.12,65.4933 309.5,64.5C 309.957,63.7025 310.624,63.3691 311.5,63.5 Z"/></g>
<g><path style="opacity:1" fill="#f1f3f1" d="M 352.5,84.5 C 352.5,86.5 352.5,88.5 352.5,90.5C 345.978,90.1765 339.645,90.5098 333.5,91.5C 333.5,94.8333 333.5,98.1667 333.5,101.5C 339.31,102.49 345.31,102.823 351.5,102.5C 351.5,104.167 351.5,105.833 351.5,107.5C 336.833,107.5 322.167,107.5 307.5,107.5C 307.5,105.833 307.5,104.167 307.5,102.5C 314.022,102.823 320.355,102.49 326.5,101.5C 326.5,98.1667 326.5,94.8333 326.5,91.5C 319.833,91.5 313.167,91.5 306.5,91.5C 306.5,89.1667 306.5,86.8333 306.5,84.5C 313.167,84.5 319.833,84.5 326.5,84.5C 326.5,81.1667 326.5,77.8333 326.5,74.5C 320.833,74.5 315.167,74.5 309.5,74.5C 309.5,73.1667 309.5,71.8333 309.5,70.5C 313.913,68.8616 318.579,67.8616 323.5,67.5C 331.91,67.1581 340.244,66.1581 348.5,64.5C 349.442,64.6082 350.275,64.9415 351,65.5C 351.495,67.4727 351.662,69.4727 351.5,71.5C 345.581,72.8193 339.581,73.486 333.5,73.5C 333.5,77.1667 333.5,80.8333 333.5,84.5C 339.833,84.5 346.167,84.5 352.5,84.5 Z"/></g>
<g><path style="opacity:1" fill="#d8d8d8" d="M 490.5,63.5 C 491.418,65.8205 492.752,67.9871 494.5,70C 491.5,70.6667 488.5,70.6667 485.5,70C 487.765,68.2419 489.432,66.0752 490.5,63.5 Z"/></g>
<g><path style="opacity:1" fill="#959695" d="M 323.5,67.5 C 318.579,67.8616 313.913,68.8616 309.5,70.5C 308.596,69.791 308.263,68.791 308.5,67.5C 313.5,67.5 318.5,67.5 323.5,67.5 Z"/></g>
<g><path style="opacity:1" fill="#969696" d="M 302.5,67.5 C 303.568,66.5655 304.901,66.2322 306.5,66.5C 306.657,67.8734 306.49,69.2068 306,70.5C 304.961,69.2899 303.794,68.2899 302.5,67.5 Z"/></g>
<g><path style="opacity:1" fill="#f8fbf8" d="M 123.5,69.5 C 130.833,69.5 138.167,69.5 145.5,69.5C 145.5,71.5 145.5,73.5 145.5,75.5C 138.167,75.5 130.833,75.5 123.5,75.5C 123.5,73.5 123.5,71.5 123.5,69.5 Z"/></g>
<g><path style="opacity:1" fill="#060706" d="M 56.5,70.5 C 70.1667,70.5 83.8333,70.5 97.5,70.5C 97.5,71.5 97.5,72.5 97.5,73.5C 83.8333,73.5 70.1667,73.5 56.5,73.5C 56.5,72.5 56.5,71.5 56.5,70.5 Z"/></g>
<g><path style="opacity:1" fill="#989998" d="M 413.5,72.5 C 401.5,72.5 389.5,72.5 377.5,72.5C 377.5,74.5 377.5,76.5 377.5,78.5C 376.532,76.3926 376.198,74.0593 376.5,71.5C 389.011,71.1714 401.345,71.5048 413.5,72.5 Z"/></g>
<g><path style="opacity:1" fill="#9c9c9c" d="M 369.5,72.5 C 370.919,71.5489 372.585,71.2155 374.5,71.5C 374.5,73.8333 374.5,76.1667 374.5,78.5C 373.539,76.7354 373.205,74.7354 373.5,72.5C 372.167,72.5 370.833,72.5 369.5,72.5 Z"/></g>
<g><path style="opacity:1" fill="#f2f4f2" d="M 413.5,72.5 C 415.268,74.5078 416.934,76.6744 418.5,79C 412.711,81.19 407.378,84.0233 402.5,87.5C 411.318,88.4933 420.318,88.8266 429.5,88.5C 429.5,90.5 429.5,92.5 429.5,94.5C 421.833,94.5 414.167,94.5 406.5,94.5C 408.036,104.451 403.869,109.784 394,110.5C 389.99,110.497 386.156,109.664 382.5,108C 381.074,105.289 381.408,102.789 383.5,100.5C 387.733,103.362 392.4,104.195 397.5,103C 399.805,100.406 400.138,97.5732 398.5,94.5C 386.833,94.5 375.167,94.5 363.5,94.5C 363.5,92.5 363.5,90.5 363.5,88.5C 373.855,88.8319 384.188,88.4986 394.5,87.5C 394.376,86.8933 394.043,86.56 393.5,86.5C 392.71,85.2058 391.71,84.0391 390.5,83C 395.146,82.6736 399.479,81.3403 403.5,79C 394.84,78.5002 386.173,78.3336 377.5,78.5C 377.5,76.5 377.5,74.5 377.5,72.5C 389.5,72.5 401.5,72.5 413.5,72.5 Z"/></g>
<g><path style="opacity:1" fill="#909190" d="M 498.5,71.5 C 499.043,71.56 499.376,71.8933 499.5,72.5C 495.217,73.4922 490.884,73.8256 486.5,73.5C 490.5,72.8333 494.5,72.1667 498.5,71.5 Z"/></g>
<g><path style="opacity:1" fill="#999a99" d="M 299.5,76.5 C 298.505,87.6544 298.172,98.9877 298.5,110.5C 295.941,110.802 293.607,110.468 291.5,109.5C 293.5,109.5 295.5,109.5 297.5,109.5C 297.333,97.8286 297.5,86.1619 298,74.5C 298.717,75.0442 299.217,75.7109 299.5,76.5 Z"/></g>
<g><path style="opacity:1" fill="#949494" d="M 172.5,77.5 C 172.56,76.9569 172.893,76.6236 173.5,76.5C 174.48,79.0865 174.813,81.7531 174.5,84.5C 173.833,82.1667 173.167,79.8333 172.5,77.5 Z"/></g>
<g><path style="opacity:1" fill="#f9f9f9" d="M 311.5,77.5 C 315.5,77.5 319.5,77.5 323.5,77.5C 323.5,78.8333 323.5,80.1667 323.5,81.5C 319.154,81.6657 314.821,81.499 310.5,81C 311.337,79.9887 311.67,78.8221 311.5,77.5 Z"/></g>
<g><path style="opacity:1" fill="#060706" d="M 56.5,79.5 C 70.1667,79.5 83.8333,79.5 97.5,79.5C 97.5,80.8333 97.5,82.1667 97.5,83.5C 83.8333,83.5 70.1667,83.5 56.5,83.5C 56.5,82.1667 56.5,80.8333 56.5,79.5 Z"/></g>
<g><path style="opacity:1" fill="#eef0ee" d="M 129.5,105.5 C 127.544,107.148 125.211,107.815 122.5,107.5C 122.5,98.1667 122.5,88.8333 122.5,79.5C 130.752,79.1842 138.919,79.5175 147,80.5C 147.667,88.5 147.667,96.5 147,104.5C 141.259,105.475 135.425,105.808 129.5,105.5 Z"/></g>
<g><path style="opacity:1" fill="#c4c5c4" d="M 480.5,80.5 C 480.5,90.5 480.5,100.5 480.5,110.5C 477.941,110.802 475.607,110.468 473.5,109.5C 475.5,109.5 477.5,109.5 479.5,109.5C 479.173,99.6522 479.506,89.9856 480.5,80.5 Z"/></g>
<g><path style="opacity:1" fill="#888888" d="M 151.5,82.5 C 150.203,87.2669 150.203,91.9335 151.5,96.5C 151.013,97.4734 150.513,98.4734 150,99.5C 149.833,96.6667 149.667,93.8333 149.5,91C 149.519,87.7485 150.186,84.9151 151.5,82.5 Z"/></g>
<g><path style="opacity:1" fill="#f2f2f2" d="M 151.5,82.5 C 152.833,82.5 154.167,82.5 155.5,82.5C 154.773,87.3461 153.44,92.0128 151.5,96.5C 150.203,91.9335 150.203,87.2669 151.5,82.5 Z"/></g>
<g><path style="opacity:1" fill="#8e8e8e" d="M 302.5,85.5 C 301.833,93.8333 301.167,102.167 300.5,110.5C 300.334,101.494 300.5,92.4938 301,83.5C 301.717,84.0442 302.217,84.7109 302.5,85.5 Z"/></g>
<g><path style="opacity:1" fill="#959595" d="M 470.5,84.5 C 468.265,84.2053 466.265,84.5386 464.5,85.5C 463.957,85.44 463.624,85.1067 463.5,84.5C 465.973,83.2031 468.307,83.2031 470.5,84.5 Z"/></g>
<g><path style="opacity:1" fill="#878787" d="M 414.5,83.5 C 419.5,84.1667 424.5,84.8333 429.5,85.5C 423.491,85.6662 417.491,85.4995 411.5,85C 412.527,84.4867 413.527,83.9867 414.5,83.5 Z"/></g>
<g><path style="opacity:1" fill="#7f7f7f" d="M 439.5,84.5 C 444.511,84.3341 449.511,84.5007 454.5,85C 453.956,85.7172 453.289,86.2172 452.5,86.5C 448.167,85.8333 443.833,85.1667 439.5,84.5 Z"/></g>
<g><path style="opacity:1" fill="#080808" d="M 129.5,85.5 C 133.167,85.5 136.833,85.5 140.5,85.5C 140.5,89.8333 140.5,94.1667 140.5,98.5C 136.833,98.5 133.167,98.5 129.5,98.5C 129.5,94.1667 129.5,89.8333 129.5,85.5 Z"/></g>
<g><path style="opacity:1" fill="#ebedeb" d="M 456.5,85.5 C 459.179,85.6726 461.513,86.6726 463.5,88.5C 457.897,96.2726 451.731,103.606 445,110.5C 443.315,108.983 441.815,107.316 440.5,105.5C 446.997,99.6798 452.33,93.0132 456.5,85.5 Z"/></g>
<g><path style="opacity:1" fill="#edefed" d="M 494.5,84.5 C 501.666,90.4973 507.666,97.4973 512.5,105.5C 511.395,106.892 510.061,108.059 508.5,109C 507.551,109.617 506.718,109.451 506,108.5C 501.477,102.131 496.477,96.1305 491,90.5C 490.333,89.8333 490.333,89.1667 491,88.5C 492.376,87.2949 493.542,85.9616 494.5,84.5 Z"/></g>
<g><path style="opacity:1" fill="#979897" d="M 393.5,86.5 C 394.043,86.56 394.376,86.8933 394.5,87.5C 384.188,88.4986 373.855,88.8319 363.5,88.5C 373.5,87.8333 383.5,87.1667 393.5,86.5 Z"/></g>
<g><path style="opacity:1" fill="#919291" d="M 402.5,87.5 C 411.833,87.5 421.167,87.5 430.5,87.5C 430.802,90.0593 430.468,92.3926 429.5,94.5C 429.5,92.5 429.5,90.5 429.5,88.5C 420.318,88.8266 411.318,88.4933 402.5,87.5 Z"/></g>
<g><path style="opacity:1" fill="#8a8b8a" d="M 132.5,88.5 C 132.5,90.8333 132.5,93.1667 132.5,95.5C 134.167,95.5 135.833,95.5 137.5,95.5C 135.735,96.4614 133.735,96.7947 131.5,96.5C 131.194,93.6146 131.527,90.9479 132.5,88.5 Z"/></g>
<g><path style="opacity:1" fill="#fefffe" d="M 132.5,88.5 C 134.167,88.5 135.833,88.5 137.5,88.5C 137.5,90.8333 137.5,93.1667 137.5,95.5C 135.833,95.5 134.167,95.5 132.5,95.5C 132.5,93.1667 132.5,90.8333 132.5,88.5 Z"/></g>
<g><path style="opacity:1" fill="#060706" d="M 56.5,89.5 C 70.1667,89.5 83.8333,89.5 97.5,89.5C 97.5,90.8333 97.5,92.1667 97.5,93.5C 83.8333,93.5 70.1667,93.5 56.5,93.5C 56.5,92.1667 56.5,90.8333 56.5,89.5 Z"/></g>
<g><path style="opacity:1" fill="#8e8f8e" d="M 352.5,84.5 C 353.468,86.6074 353.802,88.9407 353.5,91.5C 346.833,91.5 340.167,91.5 333.5,91.5C 339.645,90.5098 345.978,90.1765 352.5,90.5C 352.5,88.5 352.5,86.5 352.5,84.5 Z"/></g>
<g><path style="opacity:1" fill="#767676" d="M 352.5,93.5 C 347.36,94.4881 342.026,94.8214 336.5,94.5C 336.5,95.8333 336.5,97.1667 336.5,98.5C 342.026,98.1786 347.36,98.5119 352.5,99.5C 346.833,99.5 341.167,99.5 335.5,99.5C 335.5,97.5 335.5,95.5 335.5,93.5C 341.167,93.5 346.833,93.5 352.5,93.5 Z"/></g>
<g><path style="opacity:1" fill="#666766" d="M 49.5,99.5 C 52.1873,99.3359 54.854,99.5026 57.5,100C 56.0993,100.41 54.766,100.91 53.5,101.5C 52.1667,100.833 50.8333,100.167 49.5,99.5 Z"/></g>
<g><path style="opacity:1" fill="#6f706f" d="M 87.5,100.5 C 79.9809,100.175 72.6476,100.508 65.5,101.5C 64.9569,101.44 64.6236,101.107 64.5,100.5C 72.3235,99.1801 79.9902,99.1801 87.5,100.5 Z"/></g>
<g><path style="opacity:1" fill="#808180" d="M 103.5,99.5 C 103.5,100.167 103.5,100.833 103.5,101.5C 92.9306,100.191 92.9306,99.5245 103.5,99.5 Z"/></g>
<g><path style="opacity:1" fill="#bababa" d="M 84.5,106.5 C 83.596,105.791 83.2627,104.791 83.5,103.5C 78.193,102.974 73.193,103.64 68.5,105.5C 68.5,104.5 68.5,103.5 68.5,102.5C 73.8333,102.5 79.1667,102.5 84.5,102.5C 84.5,103.833 84.5,105.167 84.5,106.5 Z"/></g>
<g><path style="opacity:1" fill="#969796" d="M 129.5,105.5 C 129.5,106.5 129.5,107.5 129.5,108.5C 126.941,108.802 124.607,108.468 122.5,107.5C 125.211,107.815 127.544,107.148 129.5,105.5 Z"/></g>
<g><path style="opacity:1" fill="#c5c6c5" d="M 326.5,101.5 C 320.355,102.49 314.022,102.823 307.5,102.5C 307.5,104.167 307.5,105.833 307.5,107.5C 322.167,107.5 336.833,107.5 351.5,107.5C 351.5,105.833 351.5,104.167 351.5,102.5C 345.31,102.823 339.31,102.49 333.5,101.5C 339.833,101.5 346.167,101.5 352.5,101.5C 352.5,103.833 352.5,106.167 352.5,108.5C 337.167,108.5 321.833,108.5 306.5,108.5C 306.5,106.167 306.5,103.833 306.5,101.5C 313.167,101.5 319.833,101.5 326.5,101.5 Z"/></g>
<g><path style="opacity:1" fill="#3e3e3d" d="M 332.5,129.5 C 336.652,129.631 337.318,131.131 334.5,134C 333.552,134.483 332.552,134.649 331.5,134.5C 331.366,132.708 331.699,131.042 332.5,129.5 Z"/></g>
<g><path style="opacity:1" fill="#353534" d="M 74.5,131.5 C 77.941,131.301 81.2744,131.801 84.5,133C 86.4096,133.408 87.4096,134.575 87.5,136.5C 85.815,146.922 84.6483,146.589 84,135.5C 78.2709,132.401 73.2709,133.401 69,138.5C 61.573,148.25 60.7396,158.417 66.5,169C 72.9828,171.448 77.9828,169.615 81.5,163.5C 81.8333,163.833 82.1667,164.167 82.5,164.5C 75.9791,173.642 68.4791,174.642 60,167.5C 55.0513,151.6 59.8846,139.6 74.5,131.5 Z"/></g>
<g><path style="opacity:1" fill="#373736" d="M 290.5,131.5 C 293.91,131.457 297.243,131.957 300.5,133C 299.291,136.037 298.457,139.204 298,142.5C 299.033,135.532 296.2,132.699 289.5,134C 287.226,135.765 285.559,137.932 284.5,140.5C 284.719,141.938 285.219,143.271 286,144.5C 289.038,147.203 291.705,150.203 294,153.5C 296.258,160.82 293.758,165.987 286.5,169C 280.661,171.691 275.494,170.858 271,166.5C 268.457,162.744 269.29,160.911 273.5,161C 275.731,168.993 280.398,170.659 287.5,166C 290.194,163.347 291.027,160.18 290,156.5C 287.705,153.203 285.038,150.203 282,147.5C 280.121,144.134 280.121,140.8 282,137.5C 284.322,134.605 287.155,132.605 290.5,131.5 Z"/></g>
<g><path style="opacity:1" fill="#393938" d="M 213.5,135.5 C 214.376,135.369 215.043,135.702 215.5,136.5C 214.423,138.729 213.756,141.063 213.5,143.5C 215.604,143.201 217.604,143.534 219.5,144.5C 217.257,145.474 214.924,145.808 212.5,145.5C 210.985,151.41 209.985,157.41 209.5,163.5C 212.769,163.116 215.603,161.782 218,159.5C 215.663,163.548 211.997,166.214 207,167.5C 206.228,167.355 205.561,167.022 205,166.5C 204.782,159.635 205.948,152.968 208.5,146.5C 203.294,144.598 203.627,143.598 209.5,143.5C 209.278,139.944 210.611,137.277 213.5,135.5 Z"/></g>
<g><path style="opacity:1" fill="#3a3a39" d="M 118.5,141.5 C 119.833,141.5 121.167,141.5 122.5,141.5C 121.769,143.599 121.769,145.599 122.5,147.5C 124.928,144.902 127.761,142.902 131,141.5C 131.772,141.645 132.439,141.978 133,142.5C 133.333,143.833 133.667,145.167 134,146.5C 136.167,145 138.333,143.5 140.5,142C 141.784,141.316 142.951,141.483 144,142.5C 144.667,144.5 144.667,146.5 144,148.5C 142.548,153.078 141.381,157.745 140.5,162.5C 140.833,163.167 141.167,163.833 141.5,164.5C 143.149,163.352 144.649,162.019 146,160.5C 145.11,164.216 142.61,166.55 138.5,167.5C 136.976,166.473 136.309,164.973 136.5,163C 137.325,157.031 138.658,151.198 140.5,145.5C 137.041,146.436 134.207,148.436 132,151.5C 130.358,156.402 129.191,161.402 128.5,166.5C 127.167,166.5 125.833,166.5 124.5,166.5C 125.83,160.513 127.163,154.513 128.5,148.5C 128.167,147.5 127.833,146.5 127.5,145.5C 120.515,150.606 117.181,157.606 117.5,166.5C 116.167,166.5 114.833,166.5 113.5,166.5C 114.121,159.851 115.454,153.351 117.5,147C 117.333,146.167 117.167,145.333 117,144.5C 116.163,146.007 114.996,146.507 113.5,146C 115.24,144.483 116.906,142.983 118.5,141.5 Z"/></g>
<g><path style="opacity:1" fill="#343433" d="M 154.5,141.5 C 156.167,141.5 157.833,141.5 159.5,141.5C 158.833,143.819 158.666,146.153 159,148.5C 168.685,137.722 173.019,139.389 172,153.5C 169.978,160.687 165.478,165.354 158.5,167.5C 156.865,166.954 155.199,166.62 153.5,166.5C 153.076,170.034 152.409,173.534 151.5,177C 152.432,179.76 154.432,181.093 157.5,181C 152.5,181.667 147.5,181.667 142.5,181C 144.329,180.727 145.829,179.893 147,178.5C 149.446,168.322 151.946,158.155 154.5,148C 153.05,145.338 151.217,145.505 149,148.5C 148.833,148.167 148.667,147.833 148.5,147.5C 150.215,145.118 152.215,143.118 154.5,141.5 Z"/></g>
<g><path style="opacity:1" fill="#383838" d="M 183.5,141.5 C 184.995,141.415 185.995,142.081 186.5,143.5C 184.687,149.749 183.354,156.082 182.5,162.5C 185.617,162.358 188.117,161.024 190,158.5C 192.163,153.714 193.83,148.714 195,143.5C 196.356,142.62 197.856,142.286 199.5,142.5C 197.962,148.851 196.295,155.184 194.5,161.5C 194.833,162.5 195.167,163.5 195.5,164.5C 197.149,163.352 198.649,162.019 200,160.5C 199.11,164.216 196.61,166.55 192.5,167.5C 191.914,167.291 191.414,166.957 191,166.5C 190.667,164.5 190.333,162.5 190,160.5C 186.872,164.706 182.872,166.373 178,165.5C 178.2,159.357 179.367,153.357 181.5,147.5C 181.333,146.5 181.167,145.5 181,144.5C 179.833,145.667 178.667,146.833 177.5,148C 176.668,148.688 176.002,148.521 175.5,147.5C 177.948,145.031 180.615,143.031 183.5,141.5 Z"/></g>
<g><path style="opacity:1" fill="#3a3a39" d="M 245.5,145.5 C 247.482,142.863 250.148,141.53 253.5,141.5C 252.986,143.512 252.82,145.512 253,147.5C 255.026,143.974 257.859,141.307 261.5,139.5C 262.5,139.833 263.167,140.5 263.5,141.5C 261.543,143.485 259.21,144.985 256.5,146C 251.3,151.793 248.633,158.627 248.5,166.5C 246.712,166.785 245.045,166.452 243.5,165.5C 245.808,158.608 247.308,151.608 248,144.5C 247.329,145.252 246.496,145.586 245.5,145.5 Z"/></g>
<g><path style="opacity:1" fill="#363635" d="M 327.5,141.5 C 329.948,141.01 331.615,141.843 332.5,144C 330.958,150.046 329.292,156.046 327.5,162C 327.833,162.833 328.167,163.667 328.5,164.5C 330.459,163.252 331.959,161.585 333,159.5C 333.63,161.903 332.797,163.737 330.5,165C 328.35,166.411 326.016,167.245 323.5,167.5C 323.612,160.602 324.946,153.935 327.5,147.5C 327.167,146.833 326.833,146.167 326.5,145.5C 325.167,146.5 323.833,147.5 322.5,148.5C 322.167,148.167 321.833,147.833 321.5,147.5C 323.533,145.493 325.533,143.493 327.5,141.5 Z"/></g>
<g><path style="opacity:1" fill="#363635" d="M 358.5,146.5 C 360.497,143.157 363.497,141.49 367.5,141.5C 366.833,143.819 366.666,146.153 367,148.5C 370.365,144.613 374.532,142.28 379.5,141.5C 379.318,148.408 377.985,155.074 375.5,161.5C 375.833,162.5 376.167,163.5 376.5,164.5C 378.149,163.352 379.649,162.019 381,160.5C 380.11,164.216 377.61,166.55 373.5,167.5C 372.914,167.291 372.414,166.957 372,166.5C 371.333,164.167 371.333,161.833 372,159.5C 373.071,154.792 374.237,150.126 375.5,145.5C 371.464,146.02 368.297,148.02 366,151.5C 364.133,156.334 362.966,161.334 362.5,166.5C 361.167,166.5 359.833,166.5 358.5,166.5C 359.323,160.053 360.656,153.719 362.5,147.5C 362.333,146.5 362.167,145.5 362,144.5C 361.184,145.823 360.017,146.489 358.5,146.5 Z"/></g>
<g><path style="opacity:1" fill="#353535" d="M 99.5,141.5 C 107.752,141.962 110.585,146.296 108,154.5C 106.263,161.737 101.763,166.071 94.5,167.5C 88.132,165.432 85.9653,161.098 88,154.5C 89.6169,148.058 93.4503,143.725 99.5,141.5 Z"/></g>
<g><path style="opacity:1" fill="#f7f7f7" d="M 97.5,143.5 C 102.809,143.491 104.809,146.158 103.5,151.5C 104.305,157.715 102.138,162.382 97,165.5C 93.0807,163.828 91.5807,160.828 92.5,156.5C 92.2293,151.382 93.896,147.049 97.5,143.5 Z"/></g>
<g><path style="opacity:1" fill="#3b3b3a" d="M 229.5,154.5 C 226.443,156.631 225.776,159.464 227.5,163C 230.945,162.961 234.112,161.794 237,159.5C 237.667,160.167 237.667,160.833 237,161.5C 223.662,171.824 218.996,168.824 223,152.5C 225.106,148.396 227.939,144.896 231.5,142C 238.426,140.586 240.593,143.086 238,149.5C 235.687,152.072 232.854,153.739 229.5,154.5 Z"/></g>
<g><path style="opacity:1" fill="#f1f1f1" d="M 229.5,154.5 C 226.989,150.825 227.656,147.325 231.5,144C 235.088,143.389 236.254,144.889 235,148.5C 233.64,151.023 231.807,153.023 229.5,154.5 Z"/></g>
<g><path style="opacity:1" fill="#3b3b3a" d="M 343.5,154.5 C 340.443,156.631 339.776,159.464 341.5,163C 344.945,162.961 348.112,161.794 351,159.5C 351.667,160.167 351.667,160.833 351,161.5C 337.662,171.824 332.996,168.824 337,152.5C 339.106,148.396 341.939,144.896 345.5,142C 352.426,140.586 354.593,143.086 352,149.5C 349.687,152.072 346.854,153.739 343.5,154.5 Z"/></g>
<g><path style="opacity:1" fill="#f1f1f1" d="M 343.5,154.5 C 340.989,150.825 341.656,147.325 345.5,144C 349.088,143.389 350.254,144.889 349,148.5C 347.64,151.023 345.807,153.023 343.5,154.5 Z"/></g>
<g><path style="opacity:1" fill="#3b3b3a" d="M 412.5,154.5 C 409.443,156.631 408.776,159.464 410.5,163C 413.945,162.961 417.112,161.794 420,159.5C 420.667,160.167 420.667,160.833 420,161.5C 406.662,171.824 401.996,168.824 406,152.5C 408.106,148.396 410.939,144.896 414.5,142C 421.426,140.586 423.593,143.086 421,149.5C 418.687,152.072 415.854,153.739 412.5,154.5 Z"/></g>
<g><path style="opacity:1" fill="#f1f1f1" d="M 412.5,154.5 C 409.989,150.825 410.656,147.325 414.5,144C 418.088,143.389 419.254,144.889 418,148.5C 416.64,151.023 414.807,153.023 412.5,154.5 Z"/></g>
<g><path style="opacity:1" fill="#383837" d="M 482.5,125.5 C 483.649,125.791 484.316,126.624 484.5,128C 484.333,128.833 484.167,129.667 484,130.5C 481.698,132.574 479.032,133.908 476,134.5C 474.002,141.155 472.002,147.822 470,154.5C 468.533,157.266 466.7,159.766 464.5,162C 467.523,167.014 471.857,169.014 477.5,168C 479.314,165.519 479.98,162.685 479.5,159.5C 480.5,159.5 481.5,159.5 482.5,159.5C 482.268,167.889 477.934,171.389 469.5,170C 466.989,168.152 464.489,166.319 462,164.5C 452.538,169.785 445.204,167.785 440,158.5C 438.026,150.949 440.526,145.449 447.5,142C 450.634,141.21 453.634,141.543 456.5,143C 457.517,144.049 457.684,145.216 457,146.5C 455.421,148.041 453.587,149.208 451.5,150C 455.931,152.596 459.931,155.762 463.5,159.5C 464.333,158.5 465.167,157.5 466,156.5C 467.604,148.853 470.104,141.52 473.5,134.5C 465.635,132.364 462.635,135.364 464.5,143.5C 463.5,143.5 462.5,143.5 461.5,143.5C 460.588,136.581 463.588,132.747 470.5,132C 474.152,131.501 477.818,131.335 481.5,131.5C 481.325,129.379 481.659,127.379 482.5,125.5 Z"/></g>
<g><path style="opacity:1" fill="#f4f4f3" d="M 447.5,143.5 C 451.241,142.599 453.241,143.932 453.5,147.5C 444.594,148.187 444.594,150.02 453.5,153C 456.35,155.682 459.016,158.516 461.5,161.5C 454.195,165.185 448.361,163.518 444,156.5C 442.539,151.326 443.706,146.993 447.5,143.5 Z"/></g>
<g><path style="opacity:1" fill="#f5f5f5" d="M 163.5,145.5 C 165.144,145.286 166.644,145.62 168,146.5C 168.785,152.619 167.451,158.286 164,163.5C 159.755,166.736 156.922,165.903 155.5,161C 155.762,158.453 156.262,155.953 157,153.5C 159.001,150.669 161.167,148.003 163.5,145.5 Z"/></g>
<g><path style="opacity:1" fill="#3c3c3b" d="M 312.5,141.5 C 314.527,141.338 316.527,141.505 318.5,142C 321.132,143.778 320.965,145.278 318,146.5C 311.464,143.641 307.797,145.974 307,153.5C 306.333,156.5 306.333,159.5 307,162.5C 307.519,163.516 308.353,164.182 309.5,164.5C 312.351,163.713 315.017,162.88 317.5,162C 313.88,165.648 309.547,167.314 304.5,167C 301.606,164.091 300.773,160.591 302,156.5C 303.555,150.028 307.055,145.028 312.5,141.5 Z"/></g>
<g><path style="opacity:1" fill="#3c3c3b" d="M 394.5,141.5 C 396.527,141.338 398.527,141.505 400.5,142C 403.132,143.778 402.965,145.278 400,146.5C 393.464,143.641 389.797,145.974 389,153.5C 388.333,156.5 388.333,159.5 389,162.5C 389.519,163.516 390.353,164.182 391.5,164.5C 394.351,163.713 397.017,162.88 399.5,162C 395.88,165.648 391.547,167.314 386.5,167C 383.606,164.091 382.773,160.591 384,156.5C 385.555,150.028 389.055,145.028 394.5,141.5 Z"/></g>
<g><path style="opacity:1" fill="#656565" d="M 245.5,145.5 C 244.878,146.627 244.045,147.627 243,148.5C 242.481,146.511 243.314,145.511 245.5,145.5 Z"/></g>
<g><path style="opacity:1" fill="#797978" d="M 358.5,146.5 C 358.361,148.337 357.694,148.67 356.5,147.5C 356.957,146.702 357.624,146.369 358.5,146.5 Z"/></g>
<g><path style="opacity:1" fill="#353534" d="M 72.5,180.5 C 74.1992,180.34 75.8659,180.506 77.5,181C 78.5171,182.049 78.6838,183.216 78,184.5C 74.9416,184.763 71.7749,184.93 68.5,185C 65.1552,188.867 63.4885,193.367 63.5,198.5C 65.924,198.192 68.2573,198.526 70.5,199.5C 67.6336,200.208 64.8003,200.875 62,201.5C 60.1223,211.24 57.1223,220.574 53,229.5C 49.203,234.87 44.203,236.87 38,235.5C 37.5065,233.866 37.3398,232.199 37.5,230.5C 40.0021,230.749 42.5021,231.083 45,231.5C 47.0342,231.646 48.7009,230.98 50,229.5C 52.975,219.933 55.475,210.266 57.5,200.5C 55.396,200.799 53.396,200.466 51.5,199.5C 53.8333,198.833 56.1667,198.167 58.5,197.5C 60.3246,189.355 64.9913,183.688 72.5,180.5 Z"/></g>
<g><path style="opacity:1" fill="#3e3e3d" d="M 204.5,184.5 C 208.652,184.631 209.318,186.131 206.5,189C 205.552,189.483 204.552,189.649 203.5,189.5C 203.366,187.708 203.699,186.042 204.5,184.5 Z"/></g>
<g><path style="opacity:1" fill="#3e3e3d" d="M 372.5,184.5 C 376.652,184.631 377.318,186.131 374.5,189C 373.552,189.483 372.552,189.649 371.5,189.5C 371.366,187.708 371.699,186.042 372.5,184.5 Z"/></g>
<g><path style="opacity:1" fill="#3e3e3d" d="M 473.5,184.5 C 477.652,184.631 478.318,186.131 475.5,189C 474.552,189.483 473.552,189.649 472.5,189.5C 472.366,187.708 472.699,186.042 473.5,184.5 Z"/></g>
<g><path style="opacity:1" fill="#353534" d="M -0.5,221.5 C -0.5,220.833 -0.5,220.167 -0.5,219.5C 1.65472,219.628 3.65472,219.128 5.5,218C 8.7482,208.501 11.4149,198.834 13.5,189C 12.1667,188.667 10.8333,188.333 9.5,188C 12.2413,187.023 15.0746,186.523 18,186.5C 24.9347,186.931 25.1013,187.764 18.5,189C 14.8255,198.855 12.1588,209.022 10.5,219.5C 12.288,219.215 13.9547,219.548 15.5,220.5C 10.2079,221.495 4.8746,221.828 -0.5,221.5 Z"/></g>
<g><path style="opacity:1" fill="#373736" d="M 285.5,186.5 C 292.841,186.334 300.174,186.5 307.5,187C 306.897,188.825 306.23,190.659 305.5,192.5C 304.738,191.372 304.071,190.205 303.5,189C 299.514,188.501 295.514,188.334 291.5,188.5C 290.993,192.86 290.327,197.193 289.5,201.5C 292.5,201.5 295.5,201.5 298.5,201.5C 298.281,200.325 298.614,199.325 299.5,198.5C 300.243,201.169 299.909,203.836 298.5,206.5C 297.614,205.675 297.281,204.675 297.5,203.5C 294.428,203.183 291.428,203.516 288.5,204.5C 286.593,209.391 284.593,214.224 282.5,219C 288.847,219.643 295.18,219.976 301.5,220C 302.423,217.959 302.756,215.792 302.5,213.5C 307.482,214.978 307.815,217.478 303.5,221C 302.5,221.333 301.5,221.667 300.5,222C 291.855,221.868 283.188,221.535 274.5,221C 276.944,220.196 278.778,218.696 280,216.5C 283.125,207.333 285.625,198 287.5,188.5C 276.124,190.151 272.457,196.151 276.5,206.5C 275.965,208.101 274.965,208.601 273.5,208C 270.34,196.82 274.34,189.653 285.5,186.5 Z"/></g>
<g><path style="opacity:1" fill="#393938" d="M 185.5,190.5 C 186.376,190.369 187.043,190.702 187.5,191.5C 186.423,193.729 185.756,196.063 185.5,198.5C 187.604,198.201 189.604,198.534 191.5,199.5C 189.257,200.474 186.924,200.808 184.5,200.5C 182.985,206.41 181.985,212.41 181.5,218.5C 184.769,218.116 187.603,216.782 190,214.5C 187.663,218.548 183.997,221.214 179,222.5C 178.228,222.355 177.561,222.022 177,221.5C 176.782,214.635 177.948,207.968 180.5,201.5C 175.294,199.598 175.627,198.598 181.5,198.5C 181.278,194.944 182.611,192.277 185.5,190.5 Z"/></g>
<g><path style="opacity:1" fill="#373736" d="M 357.5,194.5 C 358.497,194.47 359.164,194.97 359.5,196C 355.589,207.224 353.089,218.724 352,230.5C 347.207,236.098 341.374,237.598 334.5,235C 330.928,232.374 330.595,229.374 333.5,226C 335.67,224.414 338.004,223.08 340.5,222C 338.046,221.057 337.046,219.224 337.5,216.5C 339.097,204.248 345.764,196.914 357.5,194.5 Z"/></g>
<g><path style="opacity:1" fill="#373736" d="M 524.5,194.5 C 525.497,194.47 526.164,194.97 526.5,196C 522.589,207.224 520.089,218.724 519,230.5C 514.207,236.098 508.374,237.598 501.5,235C 497.928,232.374 497.595,229.374 500.5,226C 502.67,224.414 505.004,223.08 507.5,222C 505.046,221.057 504.046,219.224 504.5,216.5C 506.097,204.248 512.764,196.914 524.5,194.5 Z"/></g>
<g><path style="opacity:1" fill="#363635" d="M 25.5,201.5 C 27.7275,198.55 30.7275,196.884 34.5,196.5C 33.833,198.819 33.6664,201.153 34,203.5C 37.3654,199.613 41.5321,197.28 46.5,196.5C 46.3184,203.408 44.9851,210.074 42.5,216.5C 42.8333,217.5 43.1667,218.5 43.5,219.5C 45.1487,218.352 46.6487,217.019 48,215.5C 47.1101,219.216 44.6101,221.55 40.5,222.5C 39.914,222.291 39.414,221.957 39,221.5C 38.3333,219.167 38.3333,216.833 39,214.5C 40.0706,209.792 41.2372,205.126 42.5,200.5C 38.4642,201.02 35.2975,203.02 33,206.5C 31.1331,211.334 29.9665,216.334 29.5,221.5C 28.1667,221.5 26.8333,221.5 25.5,221.5C 26.3227,215.053 27.6561,208.719 29.5,202.5C 29.3333,201.5 29.1667,200.5 29,199.5C 28.1841,200.823 27.0174,201.489 25.5,201.5 Z"/></g>
<g><path style="opacity:1" fill="#3a3a39" d="M 97.5,200.5 C 99.4818,197.863 102.148,196.53 105.5,196.5C 104.986,198.512 104.82,200.512 105,202.5C 107.026,198.974 109.859,196.307 113.5,194.5C 114.5,194.833 115.167,195.5 115.5,196.5C 113.543,198.485 111.21,199.985 108.5,201C 103.3,206.793 100.633,213.627 100.5,221.5C 98.712,221.785 97.0453,221.452 95.5,220.5C 97.8085,213.608 99.3085,206.608 100,199.5C 99.3292,200.252 98.4959,200.586 97.5,200.5 Z"/></g>
<g><path style="opacity:1" fill="#3a3a39" d="M 119.5,196.5 C 120.833,196.5 122.167,196.5 123.5,196.5C 122.769,198.599 122.769,200.599 123.5,202.5C 125.928,199.902 128.761,197.902 132,196.5C 132.772,196.645 133.439,196.978 134,197.5C 134.333,198.833 134.667,200.167 135,201.5C 137.167,200 139.333,198.5 141.5,197C 142.784,196.316 143.951,196.483 145,197.5C 145.667,199.5 145.667,201.5 145,203.5C 143.548,208.078 142.381,212.745 141.5,217.5C 141.833,218.167 142.167,218.833 142.5,219.5C 144.149,218.352 145.649,217.019 147,215.5C 146.11,219.216 143.61,221.55 139.5,222.5C 137.976,221.473 137.309,219.973 137.5,218C 138.325,212.031 139.658,206.198 141.5,200.5C 138.041,201.436 135.207,203.436 133,206.5C 131.358,211.402 130.191,216.402 129.5,221.5C 128.167,221.5 126.833,221.5 125.5,221.5C 126.83,215.513 128.163,209.513 129.5,203.5C 129.167,202.5 128.833,201.5 128.5,200.5C 121.515,205.606 118.181,212.606 118.5,221.5C 117.167,221.5 115.833,221.5 114.5,221.5C 115.121,214.851 116.454,208.351 118.5,202C 118.333,201.167 118.167,200.333 118,199.5C 117.163,201.007 115.996,201.507 114.5,201C 116.24,199.483 117.906,197.983 119.5,196.5 Z"/></g>
<g><path style="opacity:1" fill="#363635" d="M 199.5,196.5 C 201.948,196.01 203.615,196.843 204.5,199C 202.958,205.046 201.292,211.046 199.5,217C 199.833,217.833 200.167,218.667 200.5,219.5C 202.459,218.252 203.959,216.585 205,214.5C 205.63,216.903 204.797,218.737 202.5,220C 200.35,221.411 198.016,222.245 195.5,222.5C 195.612,215.602 196.946,208.935 199.5,202.5C 199.167,201.833 198.833,201.167 198.5,200.5C 197.167,201.5 195.833,202.5 194.5,203.5C 194.167,203.167 193.833,202.833 193.5,202.5C 195.533,200.493 197.533,198.493 199.5,196.5 Z"/></g>
<g><path style="opacity:1" fill="#363635" d="M 234.5,201.5 C 236.728,198.55 239.728,196.884 243.5,196.5C 242.833,198.819 242.666,201.153 243,203.5C 246.365,199.613 250.532,197.28 255.5,196.5C 255.318,203.408 253.985,210.074 251.5,216.5C 251.833,217.5 252.167,218.5 252.5,219.5C 254.149,218.352 255.649,217.019 257,215.5C 256.11,219.216 253.61,221.55 249.5,222.5C 248.914,222.291 248.414,221.957 248,221.5C 247.333,219.167 247.333,216.833 248,214.5C 249.071,209.792 250.237,205.126 251.5,200.5C 247.464,201.02 244.297,203.02 242,206.5C 240.133,211.334 238.966,216.334 238.5,221.5C 237.167,221.5 235.833,221.5 234.5,221.5C 235.323,215.053 236.656,208.719 238.5,202.5C 238.333,201.5 238.167,200.5 238,199.5C 237.184,200.823 236.017,201.489 234.5,201.5 Z"/></g>
<g><path style="opacity:1" fill="#363635" d="M 312.5,201.5 C 314.728,198.55 317.728,196.884 321.5,196.5C 320.833,198.819 320.666,201.153 321,203.5C 324.365,199.613 328.532,197.28 333.5,196.5C 333.318,203.408 331.985,210.074 329.5,216.5C 329.833,217.5 330.167,218.5 330.5,219.5C 332.149,218.352 333.649,217.019 335,215.5C 334.11,219.216 331.61,221.55 327.5,222.5C 326.914,222.291 326.414,221.957 326,221.5C 325.333,219.167 325.333,216.833 326,214.5C 327.071,209.792 328.237,205.126 329.5,200.5C 325.464,201.02 322.297,203.02 320,206.5C 318.133,211.334 316.966,216.334 316.5,221.5C 315.167,221.5 313.833,221.5 312.5,221.5C 313.323,215.053 314.656,208.719 316.5,202.5C 316.333,201.5 316.167,200.5 316,199.5C 315.184,200.823 314.017,201.489 312.5,201.5 Z"/></g>
<g><path style="opacity:1" fill="#363635" d="M 367.5,196.5 C 369.948,196.01 371.615,196.843 372.5,199C 370.958,205.046 369.292,211.046 367.5,217C 367.833,217.833 368.167,218.667 368.5,219.5C 370.459,218.252 371.959,216.585 373,214.5C 373.63,216.903 372.797,218.737 370.5,220C 368.35,221.411 366.016,222.245 363.5,222.5C 363.612,215.602 364.946,208.935 367.5,202.5C 367.167,201.833 366.833,201.167 366.5,200.5C 365.167,201.5 363.833,202.5 362.5,203.5C 362.167,203.167 361.833,202.833 361.5,202.5C 363.533,200.493 365.533,198.493 367.5,196.5 Z"/></g>
<g><path style="opacity:1" fill="#363635" d="M 378.5,201.5 C 380.728,198.55 383.728,196.884 387.5,196.5C 386.833,198.819 386.666,201.153 387,203.5C 390.365,199.613 394.532,197.28 399.5,196.5C 399.318,203.408 397.985,210.074 395.5,216.5C 395.833,217.5 396.167,218.5 396.5,219.5C 398.149,218.352 399.649,217.019 401,215.5C 400.11,219.216 397.61,221.55 393.5,222.5C 392.914,222.291 392.414,221.957 392,221.5C 391.333,219.167 391.333,216.833 392,214.5C 393.071,209.792 394.237,205.126 395.5,200.5C 391.464,201.02 388.297,203.02 386,206.5C 384.133,211.334 382.966,216.334 382.5,221.5C 381.167,221.5 379.833,221.5 378.5,221.5C 379.323,215.053 380.656,208.719 382.5,202.5C 382.333,201.5 382.167,200.5 382,199.5C 381.184,200.823 380.017,201.489 378.5,201.5 Z"/></g>
<g><path style="opacity:1" fill="#3a3a39" d="M 447.5,200.5 C 449.482,197.863 452.148,196.53 455.5,196.5C 454.986,198.512 454.82,200.512 455,202.5C 457.026,198.974 459.859,196.307 463.5,194.5C 464.5,194.833 465.167,195.5 465.5,196.5C 463.543,198.485 461.21,199.985 458.5,201C 453.3,206.793 450.633,213.627 450.5,221.5C 448.712,221.785 447.045,221.452 445.5,220.5C 447.808,213.608 449.308,206.608 450,199.5C 449.329,200.252 448.496,200.586 447.5,200.5 Z"/></g>
<g><path style="opacity:1" fill="#363635" d="M 468.5,196.5 C 470.948,196.01 472.615,196.843 473.5,199C 471.958,205.046 470.292,211.046 468.5,217C 468.833,217.833 469.167,218.667 469.5,219.5C 471.459,218.252 472.959,216.585 474,214.5C 474.63,216.903 473.797,218.737 471.5,220C 469.35,221.411 467.016,222.245 464.5,222.5C 464.612,215.602 465.946,208.935 468.5,202.5C 468.167,201.833 467.833,201.167 467.5,200.5C 466.167,201.5 464.833,202.5 463.5,203.5C 463.167,203.167 462.833,202.833 462.5,202.5C 464.533,200.493 466.533,198.493 468.5,196.5 Z"/></g>
<g><path style="opacity:1" fill="#363635" d="M 478.5,201.5 C 480.728,198.55 483.728,196.884 487.5,196.5C 486.833,198.819 486.666,201.153 487,203.5C 490.365,199.613 494.532,197.28 499.5,196.5C 499.318,203.408 497.985,210.074 495.5,216.5C 495.833,217.5 496.167,218.5 496.5,219.5C 498.149,218.352 499.649,217.019 501,215.5C 500.11,219.216 497.61,221.55 493.5,222.5C 492.914,222.291 492.414,221.957 492,221.5C 491.333,219.167 491.333,216.833 492,214.5C 493.071,209.792 494.237,205.126 495.5,200.5C 491.464,201.02 488.297,203.02 486,206.5C 484.133,211.334 482.966,216.334 482.5,221.5C 481.167,221.5 479.833,221.5 478.5,221.5C 479.323,215.053 480.656,208.719 482.5,202.5C 482.333,201.5 482.167,200.5 482,199.5C 481.184,200.823 480.017,201.489 478.5,201.5 Z"/></g>
<g><path style="opacity:1" fill="#363635" d="M 169.5,196.5 C 170.124,196.917 170.457,197.584 170.5,198.5C 167.864,205.011 166.864,211.677 167.5,218.5C 169.258,217.872 170.758,216.872 172,215.5C 172.167,215.833 172.333,216.167 172.5,216.5C 169.788,220.205 166.121,222.205 161.5,222.5C 162.014,220.488 162.18,218.488 162,216.5C 159.058,220.389 155.225,222.222 150.5,222C 148.718,219.757 148.218,217.257 149,214.5C 152.054,203.933 158.887,197.933 169.5,196.5 Z"/></g>
<g><path style="opacity:1" fill="#353535" d="M 82.5,196.5 C 90.752,196.962 93.5854,201.296 91,209.5C 89.2632,216.737 84.7632,221.071 77.5,222.5C 71.132,220.432 68.9653,216.098 71,209.5C 72.6169,203.058 76.4503,198.725 82.5,196.5 Z"/></g>
<g><path style="opacity:1" fill="#f7f7f7" d="M 80.5,198.5 C 85.8087,198.491 87.8087,201.158 86.5,206.5C 87.3046,212.715 85.138,217.382 80,220.5C 76.0807,218.828 74.5807,215.828 75.5,211.5C 75.2293,206.382 76.896,202.049 80.5,198.5 Z"/></g>
<g><path style="opacity:1" fill="#353535" d="M 220.5,196.5 C 228.752,196.962 231.585,201.296 229,209.5C 227.263,216.737 222.763,221.071 215.5,222.5C 209.132,220.432 206.965,216.098 209,209.5C 210.617,203.058 214.45,198.725 220.5,196.5 Z"/></g>
<g><path style="opacity:1" fill="#f7f7f7" d="M 218.5,198.5 C 223.809,198.491 225.809,201.158 224.5,206.5C 225.305,212.715 223.138,217.382 218,220.5C 214.081,218.828 212.581,215.828 213.5,211.5C 213.229,206.382 214.896,202.049 218.5,198.5 Z"/></g>
<g><path style="opacity:1" fill="#f4f4f4" d="M 348.5,199.5 C 350.167,199.5 351.833,199.5 353.5,199.5C 353.334,205.99 351.334,211.824 347.5,217C 345.702,218.505 343.868,218.672 342,217.5C 340.731,210.13 342.898,204.13 348.5,199.5 Z"/></g>
<g><path style="opacity:1" fill="#3b3b3a" d="M 411.5,209.5 C 408.443,211.631 407.776,214.464 409.5,218C 412.945,217.961 416.112,216.794 419,214.5C 419.667,215.167 419.667,215.833 419,216.5C 405.662,226.824 400.996,223.824 405,207.5C 407.106,203.396 409.939,199.896 413.5,197C 420.426,195.586 422.593,198.086 420,204.5C 417.687,207.072 414.854,208.739 411.5,209.5 Z"/></g>
<g><path style="opacity:1" fill="#f1f1f1" d="M 411.5,209.5 C 408.989,205.825 409.656,202.325 413.5,199C 417.088,198.389 418.254,199.889 417,203.5C 415.64,206.023 413.807,208.023 411.5,209.5 Z"/></g>
<g><path style="opacity:1" fill="#3b3b3a" d="M 432.5,209.5 C 429.443,211.631 428.776,214.464 430.5,218C 433.945,217.961 437.112,216.794 440,214.5C 440.667,215.167 440.667,215.833 440,216.5C 426.662,226.824 421.996,223.824 426,207.5C 428.106,203.396 430.939,199.896 434.5,197C 441.426,195.586 443.593,198.086 441,204.5C 438.687,207.072 435.854,208.739 432.5,209.5 Z"/></g>
<g><path style="opacity:1" fill="#f1f1f1" d="M 432.5,209.5 C 429.989,205.825 430.656,202.325 434.5,199C 438.088,198.389 439.254,199.889 438,203.5C 436.64,206.023 434.807,208.023 432.5,209.5 Z"/></g>
<g><path style="opacity:1" fill="#f4f4f4" d="M 515.5,199.5 C 517.167,199.5 518.833,199.5 520.5,199.5C 520.334,205.99 518.334,211.824 514.5,217C 512.702,218.505 510.868,218.672 509,217.5C 507.731,210.13 509.898,204.13 515.5,199.5 Z"/></g>
<g><path style="opacity:1" fill="#f6f6f6" d="M 159.5,200.5 C 161.5,200.5 163.5,200.5 165.5,200.5C 165.049,206.653 163.049,212.153 159.5,217C 157.702,218.505 155.868,218.672 154,217.5C 152.74,210.78 154.574,205.113 159.5,200.5 Z"/></g>
<g><path style="opacity:1" fill="#797978" d="M 25.5,201.5 C 25.3605,203.337 24.6939,203.67 23.5,202.5C 23.9569,201.702 24.6236,201.369 25.5,201.5 Z"/></g>
<g><path style="opacity:1" fill="#656565" d="M 97.5,200.5 C 96.8783,201.627 96.045,202.627 95,203.5C 94.4808,201.511 95.3141,200.511 97.5,200.5 Z"/></g>
<g><path style="opacity:1" fill="#797978" d="M 234.5,201.5 C 234.361,203.337 233.694,203.67 232.5,202.5C 232.957,201.702 233.624,201.369 234.5,201.5 Z"/></g>
<g><path style="opacity:1" fill="#797978" d="M 312.5,201.5 C 312.361,203.337 311.694,203.67 310.5,202.5C 310.957,201.702 311.624,201.369 312.5,201.5 Z"/></g>
<g><path style="opacity:1" fill="#797978" d="M 378.5,201.5 C 378.361,203.337 377.694,203.67 376.5,202.5C 376.957,201.702 377.624,201.369 378.5,201.5 Z"/></g>
<g><path style="opacity:1" fill="#656565" d="M 447.5,200.5 C 446.878,201.627 446.045,202.627 445,203.5C 444.481,201.511 445.314,200.511 447.5,200.5 Z"/></g>
<g><path style="opacity:1" fill="#797978" d="M 478.5,201.5 C 478.361,203.337 477.694,203.67 476.5,202.5C 476.957,201.702 477.624,201.369 478.5,201.5 Z"/></g>
<g><path style="opacity:1" fill="#f7f7f7" d="M 348.5,217.5 C 350.057,222.255 349.557,226.921 347,231.5C 343.531,234.916 339.864,235.25 336,232.5C 335.333,230.833 335.333,229.167 336,227.5C 340.066,223.923 344.232,220.589 348.5,217.5 Z"/></g>
<g><path style="opacity:1" fill="#f7f7f7" d="M 515.5,217.5 C 517.057,222.255 516.557,226.921 514,231.5C 510.531,234.916 506.864,235.25 503,232.5C 502.333,230.833 502.333,229.167 503,227.5C 507.066,223.923 511.232,220.589 515.5,217.5 Z"/></g>
</svg>
