<svg width="700" height="150" xmlns="http://www.w3.org/2000/svg" version="1.1" clip-rule="evenodd">
 <g>
  <title>Layer 1</title>
  <g stroke="null" id="svg_1">
   <g stroke="null" id="svg_3">
    <path stroke="null" fill="#111111" d="m74.11341,135.05448c0,-2.36976 0,-4.74129 0,-7.11105c-7.6467,0 -15.29354,0 -22.94024,0c0,1.77776 0,3.55553 0,5.33329c-0.79961,2.29331 -2.23338,3.77419 -4.3013,4.44441c-7.2312,2.09421 -14.40002,4.46396 -21.50648,7.11105c-14.20517,5.49507 -19.70123,-0.72711 -16.4883,-18.66651c3.3454,-1.18577 6.69095,-2.36976 10.03636,-3.55553c0.7166,-18.95362 0.9556,-37.91631 0.71688,-56.88843c-9.53913,1.2439 -14.07943,-4.08939 -13.62077,-15.99987c8.12931,-4.89845 16.01501,-10.52809 23.65713,-16.88875c-6.76737,-0.39342 -13.45832,-1.2823 -20.07271,-2.66664c-1.65887,-5.83889 -1.89773,-11.7647 -0.71688,-17.77763c9.68136,-2.03465 19.4787,-2.331 29.39219,-0.88888c1.99752,2.08194 3.19228,4.74858 3.58441,7.99993c2.92244,-5.99408 6.74587,-10.73485 11.47012,-14.22211c4.04207,0.87662 7.62648,2.95055 10.75324,6.22217c15.29354,0.59253 30.58694,1.18523 45.88049,1.77776c2.94926,3.05669 5.33934,6.61221 7.16883,10.66658c-2.96216,7.05879 -6.78601,13.28096 -11.47012,18.66651c3.24891,1.44745 6.59532,2.33634 10.03636,2.66664c1.53986,1.31323 2.49619,3.091 2.86753,5.33329c-1.65743,4.68138 -3.0912,9.42215 -4.3013,14.22211c-2.82882,0.88088 -5.69635,1.17706 -8.60259,0.88888c0,18.96287 0,37.92556 0,56.88843c11.55902,1.72621 14.42655,9.13415 8.60259,22.22204c-5.27912,0.39466 -10.53531,-0.19733 -15.77142,-1.77776c-8.48746,-1.92887 -16.61218,-4.59552 -24.37401,-7.99993z" id="svg_4"/>
   </g>
   <g stroke="null" id="svg_5">
    <path stroke="null" fill="#151515" d="m547.25595,94.16593c-1.39505,0.86524 -2.82882,1.75412 -4.3013,2.66664c8.58969,0.88799 17.19228,1.18435 25.80777,0.88888c1.42803,-0.15253 2.62236,0.44017 3.58441,1.77776c1.46674,6.78554 0.74986,13.00772 -2.15065,18.66651c-10.02489,0.88817 -20.06124,1.18452 -30.10907,0.88888c-0.63229,19.15007 -8.756,28.63088 -24.37401,28.44421c-6.79031,-0.73244 -13.00425,-3.39908 -18.63895,-7.99993c-1.70905,-5.76706 -1.2316,-11.39546 1.43377,-16.88875c1.19433,-0.59253 2.39009,-1.18523 3.58441,-1.77776c4.67838,2.13029 9.45712,3.90752 14.33765,5.33329c3.95146,0.13511 5.62466,-2.23465 5.01818,-7.11105c-16.25603,0.296 -32.50633,-0.00018 -48.74802,-0.88888c-3.23601,-5.75586 -3.71345,-11.97804 -1.43377,-18.66651c13.35696,-1.47928 26.73829,-2.36816 40.14543,-2.66664c-1.20006,-1.79785 -1.67751,-3.87179 -1.43377,-6.22217c-5.75513,0.29422 -11.49019,-0.00213 -17.20518,-0.88888c-1.80081,-0.74115 -2.75713,-2.22256 -2.86753,-4.44441c0,-4.14806 0,-8.29629 0,-12.44434c-2.74566,-0.50577 -5.13431,0.08693 -7.16883,1.77776c1.90834,16.88591 -3.58871,22.2192 -16.4883,15.99987c-0.95632,-11.85181 -0.95632,-23.70345 0,-35.55527c1.59148,-2.73207 3.74213,-3.9173 6.45194,-3.55553c-0.23801,-13.64238 0,-27.27196 0.71688,-40.88856c0.71688,-0.88888 1.43377,-1.77776 2.15065,-2.66664c8.90942,-0.97333 17.75145,-2.45474 26.52466,-4.44441c2.84889,1.16195 4.7601,3.53242 5.73506,7.11105c4.01884,-6.50288 8.55958,-7.09541 13.62077,-1.77776c3.93999,-3.18451 8.24128,-4.07339 12.90389,-2.66664c0.78427,1.64372 1.73916,3.12513 2.86753,4.44441c5.22464,-2.23714 10.72026,-3.42237 16.4883,-3.55553c5.01818,0.59253 10.03636,1.18523 15.05454,1.77776c1.15275,14.72895 1.86963,29.54376 2.15065,44.44408c2.39009,1.77776 4.77874,3.55553 7.16883,5.33329c0.85309,12.16043 -0.82011,23.7159 -5.01818,34.66638c-13.19351,2.16674 -17.4948,-4.64796 -12.90389,-20.44428c-3.37938,-0.29031 -6.72436,0.00604 -10.03636,0.88888c8.60259,9.39708 7.6477,16.21196 -2.86753,20.44428z" id="svg_6"/>
   </g>
   <g stroke="null" id="svg_7">
    <path stroke="null" fill="#161616" d="m627.5468,95.94369c-3.14425,-2.30558 -6.49066,-2.30558 -10.03636,0c0.17779,1.07857 0.65523,1.6711 1.43377,1.77776c2.10763,5.66395 1.39075,10.99724 -2.15065,15.99987c-7.40827,10.36969 -14.8151,20.74116 -22.22336,31.11086c-7.39249,0.95821 -12.17267,-3.18931 -14.33765,-12.44434c8.03195,-10.23832 15.20078,-21.20107 21.50648,-32.88862c1.13124,-0.50275 2.08756,-1.39163 2.86753,-2.66664c-7.15305,-0.88764 -14.32188,-1.18381 -21.50648,-0.88888c-2.22664,-4.47463 -3.6604,-9.51157 -4.3013,-15.11099c0.37135,-2.24229 1.32767,-4.02006 2.86753,-5.33329c10.14962,-0.20355 20.18598,-1.38861 30.10907,-3.55553c-7.52153,-6.88812 -15.40724,-13.11029 -23.65713,-18.66651c-0.54483,-5.8092 0.65093,-11.14249 3.58441,-15.99987c-2.42736,-1.29475 -4.57801,-3.07251 -6.45194,-5.33329c-1.13124,-6.38484 -0.8918,-12.60701 0.71688,-18.66651c29.79651,-0.05707 59.42814,-2.72371 88.89345,-7.99993c3.06969,0.20124 5.69922,1.38648 7.88571,3.55553c1.17712,5.42947 0.93912,10.76276 -0.71688,15.99987c-6.08203,2.22114 -12.29454,3.70255 -18.63895,4.44441c-0.47744,0.59253 -0.95632,1.18523 -1.43377,1.77776c5.5329,6.05826 5.5329,12.28043 0,18.66651c0.23944,0.59253 0.47744,1.18523 0.71688,1.77776c5.26335,-5.14769 9.56465,-3.96263 12.90389,3.55553c6.88924,12.04097 12.86231,24.78166 17.92207,38.22191c-3.90558,7.90891 -9.40263,10.57556 -16.4883,7.99993c-1.13984,-4.64921 -3.29049,-8.20473 -6.45194,-10.66658c-1.77357,0.10044 -3.20733,0.98933 -4.3013,2.66664c9.21338,11.32133 17.57653,23.46932 25.09089,36.44415c0.95632,2.36976 0.95632,4.74129 0,7.11105c-3.70055,5.25329 -8.23985,7.91994 -13.62077,7.99993c-8.19253,-12.90301 -16.55569,-25.64441 -25.09089,-38.22191c0.12617,-5.58609 2.27682,-10.0305 6.45194,-13.33322c-4.27549,-0.88533 -8.57678,-1.1815 -12.90389,-0.88888c0.23801,16.60306 0,33.19617 -0.71688,49.77737c-2.43453,2.19198 -5.30206,3.37775 -8.60259,3.55553c-3.30053,-0.17778 -6.16806,-1.36354 -8.60259,-3.55553c-0.71688,-15.39543 -0.95489,-30.80313 -0.71688,-46.22185z" id="svg_8"/>
   </g>
   <g stroke="null" id="svg_9">
    <path stroke="null" fill="#111111" d="m458.3625,111.94356c-8.12515,0 -16.24886,0 -24.37401,0c0,3.55553 0,7.11105 0,10.66658c8.12515,0 16.24886,0 24.37401,0c1.84526,2.43731 2.80014,5.69773 2.86753,9.7777c-0.14338,4.09241 -1.0997,7.64794 -2.86753,10.66658c-21.98392,1.18577 -43.96928,1.18577 -65.9532,0c-2.19079,-2.92975 -3.14711,-6.48528 -2.86753,-10.66658c-0.27958,-4.1813 0.67674,-7.73683 2.86753,-10.66658c8.11081,-0.88781 16.23596,-1.18417 24.37401,-0.88888c0,-2.963 0,-5.92582 0,-8.88882c-9.13022,0.58613 -18.21169,-0.00658 -27.24154,-1.77776c-0.81294,-4.41294 -1.76927,-8.56117 -2.86753,-12.44434c-0.40576,-1.40283 -1.12264,-2.58807 -2.15065,-3.55553c-0.71688,15.98885 -0.95489,31.98907 -0.71688,47.99961c-0.15915,1.09688 -0.63659,1.98576 -1.43377,2.66664c-4.84899,1.46488 -9.62917,1.16799 -14.33765,-0.88888c-1.14128,-11.76346 -1.85816,-23.61456 -2.15065,-35.55527c-1.05955,1.90967 -2.49332,3.09491 -4.3013,3.55553c-3.70485,-1.07324 -7.28926,-2.55482 -10.75324,-4.44441c-0.80147,-1.28835 -1.27892,-2.76993 -1.43377,-4.44441c5.14292,-12.1647 9.92309,-24.60904 14.33765,-37.33303c-3.82385,-1.18523 -7.64627,-2.37029 -11.47012,-3.55553c-4.35721,-16.52875 0.42153,-23.04728 14.33765,-19.5554c0,-2.963 0,-5.92582 0,-8.88882c-4.3013,0 -8.60259,0 -12.90389,0c-1.45814,-6.92279 -1.45814,-13.73767 0,-20.44428c11.99918,-1.00479 23.70874,-3.67144 35.12725,-7.99993c2.23524,0.94115 4.38589,2.1262 6.45194,3.55553c20.00819,-2.04247 40.08091,-2.33883 60.21814,-0.88888c1.6732,0.88888 2.86753,2.37029 3.58441,4.44441c1.15131,14.90157 0.91187,29.7162 -0.71688,44.44408c2.43023,5.63604 3.14711,11.56204 2.15065,17.77763c-8.62123,3.41348 -17.46326,5.78378 -26.52466,7.11105c0,2.963 0,5.92582 0,8.88882c8.6155,-0.29546 17.21809,0.00089 25.80777,0.88888c2.90051,5.6588 3.61739,11.88097 2.15065,18.66651c-0.96206,1.33759 -2.15638,1.9303 -3.58441,1.77776z" id="svg_10"/>
   </g>
   <g stroke="null" id="svg_11">
    <path stroke="null" fill="#151515" d="m203.15228,95.94369c0.44877,-4.88334 -0.02868,-9.62392 -1.43377,-14.22211c-0.8703,0.21973 -1.34774,0.81226 -1.43377,1.77776c-1.89544,-0.30222 -3.56864,0.29049 -5.01818,1.77776c-1.66604,21.03716 -7.16166,40.29656 -16.4883,57.77731c-8.84633,-1.1751 -17.68693,-2.65598 -26.52466,-4.44441c-6.7344,-0.10844 -13.18634,1.07732 -19.35583,3.55553c-2.39009,-0.592 -4.77874,-1.18577 -7.16883,-1.77776c-0.92191,-9.09681 -1.39935,-18.2827 -1.43377,-27.55533c-0.08172,-16.24182 0.87316,-31.94534 2.86753,-47.11073c-0.88893,-9.84632 -3.27902,-18.73514 -7.16883,-26.66645c-0.61795,-5.14342 0.81581,-8.69895 4.3013,-10.66658c2.70695,-4.42272 3.66327,-9.75601 2.86753,-15.99987c0.15915,-1.09759 0.63659,-1.98647 1.43377,-2.66664c11.47012,-1.18523 22.94024,-1.18523 34.41037,0c1.65743,2.87091 3.56864,2.87091 5.73506,0c16.31625,-1.44212 32.56511,-1.14595 48.74802,0.88888c0.99217,0.93386 1.70905,2.11892 2.15065,3.55553c0.71688,28.43799 0.95632,56.8822 0.71688,85.33264c3.82242,0.76977 7.64484,1.65865 11.47012,2.66664c2.07036,2.00176 3.02524,4.66841 2.86753,7.99993c-0.29679,11.28613 -2.44744,21.95182 -6.45194,31.99974c-9.77398,8.72526 -16.46536,5.76173 -20.07271,-8.88882c-3.03815,-12.18141 -4.71135,-24.62575 -5.01818,-37.33303z" id="svg_12"/>
   </g>
   <g stroke="null" id="svg_13">
    <path stroke="null" fill="#eff1ef" d="m102.78872,60.38842c-2.05028,-1.84443 -4.44037,-3.02949 -7.16883,-3.55553c-9.19918,-3.98539 -17.08489,-10.50391 -23.65713,-19.5554c-6.90057,10.64294 -15.74203,17.16146 -26.52466,19.5554c-1.43377,0 -2.86753,0 -4.3013,0c-1.76324,-3.195 -2.71899,-6.75052 -2.86753,-10.66658c11.36001,-0.04889 20.44047,-5.67853 27.24154,-16.88875c-4.3013,-1.18523 -8.60259,-1.18523 -12.90389,0c-2.65261,3.58682 -5.52014,6.84599 -8.60259,9.7777c-2.79771,-3.07357 -4.47048,-6.6291 -5.01818,-10.66658c6.24649,-5.07818 11.26466,-11.59671 15.05454,-19.5554c2.70767,1.96265 5.09732,4.33294 7.16883,7.11105c15.74977,1.47981 31.52119,2.36869 47.31425,2.66664c1.70188,1.81243 3.13564,3.88637 4.3013,6.22217c-3.97583,7.60296 -8.756,14.41766 -14.33765,20.44428c4.71565,1.56728 9.49583,2.75251 14.33765,3.55553c1.19433,3.6997 1.19433,7.55158 0,11.55546c-3.34497,0 -6.69138,0 -10.03636,0z" id="svg_14"/>
   </g>
   <g stroke="null" id="svg_15">
    <path stroke="null" fill="#f0f2f0" d="m485.60404,40.83303c4.9637,1.74505 10.22131,2.33776 15.77142,1.77776c0,2.963 0,5.92582 0,8.88882c-5.25762,0 -10.5138,0 -15.77142,0c0,1.77776 0,3.55553 0,5.33329c14.8237,0.296 29.6388,-0.00036 44.44672,-0.88888c-2.5607,-1.39466 -4.71135,-3.46877 -6.45194,-6.22217c-7.26202,7.60367 -13.23652,6.71479 -17.92207,-2.66664c3.17579,-1.85563 6.52076,-3.04086 10.03636,-3.55553c-4.7601,-2.24229 -5.23898,-5.20529 -1.43377,-8.88882c-4.70849,0.32711 -7.57602,-2.33954 -8.60259,-7.99993c2.56214,-1.45065 4.95223,-3.22842 7.16883,-5.33329c-3.89841,-4.77969 -3.18153,-8.33522 2.15065,-10.66658c2.95069,1.08746 5.57878,2.86522 7.88571,5.33329c2.39009,-2.37029 4.77874,-4.74076 7.16883,-7.11105c6.36305,3.44157 6.84193,7.29327 1.43377,11.55546c1.70188,1.81243 3.13564,3.88637 4.3013,6.22217c-3.69911,4.36548 -3.69911,8.80988 0,13.33322c-1.43377,1.48141 -2.86753,2.963 -4.3013,4.44441c4.91208,3.12797 5.38952,6.97985 1.43377,11.55546c8.11081,0.88781 16.23596,1.18417 24.37401,0.88888c0,-1.77776 0,-3.55553 0,-5.33329c-5.73506,0 -11.47012,0 -17.20518,0c0,-3.55553 0,-7.11105 0,-10.66658c22.94024,-1.18523 22.94024,-2.37029 0,-3.55553c0,-3.55553 0,-7.11105 0,-10.66658c5.73506,0 11.47012,0 17.20518,0c0,-1.77776 0,-3.55553 0,-5.33329c-5.25762,0 -10.5138,0 -15.77142,0c0,-3.55553 0,-7.11105 0,-10.66658c8.12515,0 16.24886,0 24.37401,0c-0.47458,15.45267 0.00287,30.86002 1.43377,46.22185c5.40386,1.37119 7.79395,5.51942 7.16883,12.44434c-0.36418,6.67799 -1.3205,13.19651 -2.86753,19.5554c-4.12924,0.8311 -7.47422,-0.65048 -10.03636,-4.44441c1.23447,-5.57649 2.18936,-11.20613 2.86753,-16.88875c-28.67531,0 -57.35061,0 -86.02592,0c0,6.51852 0,13.03687 0,19.5554c-2.86753,0 -5.73506,0 -8.60259,0c0,-10.07405 0,-20.14792 0,-30.22198c2.39009,0 4.77874,0 7.16883,0c0,-15.40734 0,-30.8145 0,-46.22185c8.65277,-0.16729 17.25537,-0.46364 25.80777,-0.88888c2.50192,3.00798 2.97936,6.26715 1.43377,9.7777c-6.11501,1.66861 -12.32751,2.26114 -18.63895,1.77776c0,1.77776 0,3.55553 0,5.33329c5.73506,0 11.47012,0 17.20518,0c0,3.55553 0,7.11105 0,10.66658c-6.41036,-1.04781 -12.14543,0.13724 -17.20518,3.55553z" id="svg_16"/>
   </g>
   <g stroke="null" id="svg_17">
    <path stroke="null" fill="#e9ebe9" d="m673.42729,8.83329c1.91121,0 3.82385,0 5.73506,0c1.36208,4.56512 1.36208,9.00953 0,13.33322c-14.86671,1.88176 -29.68181,4.25223 -44.44672,7.11105c-5.19023,9.40188 -10.92529,18.2907 -17.20518,26.66645c8.62697,4.83036 9.34385,11.05253 2.15065,18.66651c-7.72656,-9.38783 -16.56859,-16.79524 -26.52466,-22.22204c-1.39935,-3.81668 -1.15992,-7.66856 0.71688,-11.55546c0.80434,-0.92781 1.76066,-1.52034 2.86753,-1.77776c4.67694,2.83127 8.97824,6.38679 12.90389,10.66658c5.19597,-6.35675 9.01982,-13.4678 11.47012,-21.33316c-10.67008,2.3342 -21.42332,2.3342 -32.25972,0c-1.21583,-3.39304 -1.69471,-6.94857 -1.43377,-10.66658c17.21665,-0.42186 34.42184,-1.31074 51.61555,-2.66664c11.80706,-0.93581 23.27718,-3.00993 34.41037,-6.22217z" id="svg_18"/>
   </g>
   <g stroke="null" id="svg_19">
    <path stroke="null" fill="#0f0f0f" d="m243.29771,12.38882c32.50202,-0.29618 65.00118,0 97.49604,0.88888c2.19079,2.92922 3.14711,6.48475 2.86753,10.66658c0.27958,4.18183 -0.67674,7.73736 -2.86753,10.66658c-12.89528,0.88853 -25.79917,1.1847 -38.71166,0.88888c0,27.25898 0,54.51813 0,81.77711c14.34626,-0.296 28.68391,0.00036 43.01296,0.88888c1.76783,3.01811 2.72415,6.57417 2.86753,10.66658c-0.47744,3.25864 -0.95632,6.51906 -1.43377,9.7777c-35.78248,2.05687 -71.62661,2.35376 -107.5324,0.88888c-2.90051,-5.65862 -3.61739,-11.88079 -2.15065,-18.66651c0.71688,-0.88888 1.43377,-1.77776 2.15065,-2.66664c14.80793,-0.88853 29.62302,-1.18488 44.44672,-0.88888c0,-27.25898 0,-54.51813 0,-81.77711c-13.38993,0.296 -26.7727,-0.00036 -40.14543,-0.88888c-3.7708,-7.40545 -3.7708,-14.81268 0,-22.22204z" id="svg_20"/>
   </g>
   <g stroke="null" id="svg_21">
    <path stroke="null" fill="#eef0ee" d="m382.37294,81.72158c-0.40576,-1.40283 -1.12264,-2.58807 -2.15065,-3.55553c-0.71688,20.7321 -0.95632,41.47273 -0.71688,62.22172c-2.86753,0 -5.73506,0 -8.60259,0c0.23801,-17.78759 0,-35.56522 -0.71688,-53.3329c-2.446,6.36226 -5.0741,12.58443 -7.88571,18.66651c-3.45968,0.86008 -6.80465,0.26755 -10.03636,-1.77776c6.9853,-12.87972 12.24292,-26.80565 15.77142,-41.77744c-4.19806,-1.7495 -8.49936,-2.34203 -12.90389,-1.77776c0,-4.14806 0,-8.29629 0,-12.44434c5.25762,0 10.5138,0 15.77142,0c0,-6.51852 0,-13.03687 0,-19.5554c-4.74146,0.97919 -9.5202,1.57172 -14.33765,1.77776c-0.24948,-4.1973 -0.72692,-8.34553 -1.43377,-12.44434c11.397,-1.13012 22.62912,-3.50042 33.69348,-7.11105c1.10687,0.25742 2.06319,0.84995 2.86753,1.77776c0.70971,3.50699 0.94915,7.06252 0.71688,10.66658c-3.7665,1.05172 -7.59035,1.64425 -11.47012,1.77776c0,7.70358 0,15.40734 0,23.11092c4.3013,0 8.60259,0 12.90389,0c0,4.14806 0,8.29629 0,12.44434c-4.40453,-0.56426 -8.70582,0.02827 -12.90389,1.77776c3.72205,6.25613 7.78391,12.18212 12.187,17.77763c2.88043,6.02644 1.44667,10.17467 -4.3013,12.44434c-3.01377,-2.83518 -5.16442,-6.3907 -6.45194,-10.66658z" id="svg_22"/>
   </g>
   <g stroke="null" id="svg_23">
    <path stroke="null" fill="#727372" d="m36.83551,15.94434c-8.12472,0 -16.24929,0 -24.37401,0c0,3.55553 0,7.11105 0,10.66658c-1.38817,-3.74646 -1.86619,-7.89451 -1.43377,-12.44434c8.87501,-0.57404 17.4776,0.01849 25.80777,1.77776z" id="svg_24"/>
   </g>
   <g stroke="null" id="svg_25">
    <path stroke="null" fill="#edefed" d="m168.74192,14.16658c15.77142,0 31.54284,0 47.31425,0c-0.23944,26.67303 0,53.33948 0.71688,79.99935c0.22797,9.62872 1.18429,19.11024 2.86753,28.44421c0.71402,-5.89649 0.95345,-11.8223 0.71688,-17.77763c3.34497,0 6.69138,0 10.03636,0c0.76706,11.86444 -0.90614,23.12337 -5.01818,33.7775c-5.22751,5.05063 -9.5288,3.86486 -12.90389,-3.55553c-3.29909,-12.09857 -5.2103,-24.54291 -5.73506,-37.33303c-0.71688,-23.69616 -0.95632,-47.39961 -0.71688,-71.11053c-4.77874,0 -9.55891,0 -14.33765,0c-0.47458,13.68078 0.0043,27.31036 1.43377,40.88856c8.3015,-5.09471 11.16903,-1.83554 8.60259,9.7777c-3.39946,1.3063 -6.74587,2.78789 -10.03636,4.44441c-0.89037,21.63431 -6.38742,41.18971 -16.4883,58.66619c-3.35931,-1.11466 -6.46628,-2.89242 -9.31947,-5.33329c7.55738,-13.41269 12.33755,-28.22733 14.33765,-44.44408c-0.47744,-1.77776 -0.95632,-3.55553 -1.43377,-5.33329c-7.35808,3.80975 -12.13826,1.1431 -14.33765,-7.99993c4.99524,-2.84709 10.25286,-4.9212 15.77142,-6.22217c1.4309,-14.76752 1.90834,-29.58216 1.43377,-44.44408c-4.3013,0 -8.60259,0 -12.90389,0c0,-4.14806 0,-8.29629 0,-12.44434z" id="svg_26"/>
   </g>
   <g stroke="null" id="svg_27">
    <path stroke="null" fill="#f3f5f3" d="m398.14436,12.38882c19.11639,0 38.23422,0 57.35061,0c0,14.22211 0,28.44421 0,42.66632c-19.11639,0 -38.23422,0 -57.35061,0c0,-14.22211 0,-28.44421 0,-42.66632z" id="svg_28"/>
   </g>
   <g stroke="null" id="svg_29">
    <path stroke="null" fill="#f8fbf8" d="m36.83551,15.94434c0,3.55553 0,7.11105 0,10.66658c-8.12472,0 -16.24929,0 -24.37401,0c0,-3.55553 0,-7.11105 0,-10.66658c8.12472,0 16.24929,0 24.37401,0z" id="svg_30"/>
   </g>
   <g stroke="null" id="svg_31">
    <path stroke="null" fill="#636363" d="m127.16272,12.38882c0.79574,6.24386 -0.16058,11.57715 -2.86753,15.99987c0.84305,-5.52955 1.79938,-10.86284 2.86753,-15.99987z" id="svg_32"/>
   </g>
   <g stroke="null" id="svg_33">
    <path stroke="null" fill="#e5e7e5" d="m130.03026,14.16658c10.5138,0 21.02904,0 31.54284,0c0,4.14806 0,8.29629 0,12.44434c-10.5138,0 -21.02904,0 -31.54284,0c0,-4.14806 0,-8.29629 0,-12.44434z" id="svg_34"/>
   </g>
   <g stroke="null" id="svg_35">
    <path stroke="null" fill="#f8faf8" d="m244.73148,17.72211c31.54284,0 63.08567,0 94.62851,0c0,4.14806 0,8.29629 0,12.44434c-13.86021,0 -27.71898,0 -41.57919,0c0,30.8145 0,61.62919 0,92.44369c15.77142,0 31.54284,0 47.31425,0c0,4.14752 0,8.29682 0,12.44434c-34.88781,0 -69.77705,0 -104.66486,0c0,-4.14752 0,-8.29682 0,-12.44434c15.77142,0 31.54284,0 47.31425,0c0,-30.8145 0,-61.62919 0,-92.44369c-14.33765,0 -28.67531,0 -43.01296,0c0,-4.14806 0,-8.29629 0,-12.44434z" id="svg_36"/>
   </g>
   <g stroke="null" id="svg_37">
    <path stroke="null" fill="#8f908f" d="m406.74695,23.05539c13.38133,0 26.7641,0 40.14543,0c0,7.11105 0,14.22211 0,21.33316c-13.38133,0 -26.7641,0 -40.14543,0c0,-7.11105 0,-14.22211 0,-21.33316z" id="svg_38"/>
   </g>
   <g stroke="null" id="svg_39">
    <path stroke="null" fill="#060706" d="m408.18072,24.83316c12.42644,0 24.85145,0 37.2779,0c0,5.92582 0,11.85181 0,17.77763c-12.42644,0 -24.85145,0 -37.2779,0c0,-5.92582 0,-11.85181 0,-17.77763z" id="svg_40"/>
   </g>
   <g stroke="null" id="svg_41">
    <path stroke="null" fill="#111111" d="m78.41471,30.16645c5.94482,-2.03909 12.15776,-2.33527 18.63895,-0.88888c-1.91164,2.37029 -3.82342,4.74076 -5.73506,7.11105c1.91164,2.37029 3.82342,4.74076 5.73506,7.11105c-7.39335,-1.62914 -13.60643,-6.07355 -18.63895,-13.33322z" id="svg_42"/>
   </g>
   <g stroke="null" id="svg_43">
    <path stroke="null" fill="#f9f9f9" d="m385.24047,42.61079c-0.31686,-4.94005 0.16058,-9.68081 1.43377,-14.22211c2.05028,0.1408 3.96293,-0.45191 5.73506,-1.77776c1.41083,5.20547 1.88827,10.53876 1.43377,15.99987c-2.86753,0 -5.73506,0 -8.60259,0z" id="svg_44"/>
   </g>
   <g stroke="null" id="svg_45">
    <path stroke="null" fill="#939393" d="m411.04825,28.38868c10.5138,0 21.02904,0 31.54284,0c0,3.55553 0,7.11105 0,10.66658c-10.5138,0 -21.02904,0 -31.54284,0c0,-3.55553 0,-7.11105 0,-10.66658z" id="svg_46"/>
   </g>
   <g stroke="null" id="svg_47">
    <path stroke="null" fill="#1b1b1b" d="m521.44817,28.38868c11.41564,3.2862 11.41564,5.95284 0,7.99993c-5.39669,-2.52673 -5.39669,-5.19338 0,-7.99993z" id="svg_48"/>
   </g>
   <g stroke="null" id="svg_49">
    <path stroke="null" fill="#484848" d="m201.71852,31.94421c-1.91121,0 -3.82385,0 -5.73506,0c0,9.48134 0,18.96287 0,28.44421c-1.43377,-8.71673 -1.91121,-18.7906 -1.43377,-30.22198c3.6432,-0.62471 6.03328,-0.03218 7.16883,1.77776z" id="svg_50"/>
   </g>
   <g stroke="null" id="svg_51">
    <path stroke="null" fill="#848484" d="m386.67424,28.38868c-1.27318,4.5413 -1.75063,9.28206 -1.43377,14.22211c-0.94055,-1.99394 -1.41799,-4.36423 -1.43377,-7.11105c0.12187,-3.25828 1.07819,-5.62858 2.86753,-7.11105z" id="svg_52"/>
   </g>
   <g stroke="null" id="svg_53">
    <path stroke="null" fill="#fefffe" d="m412.48201,30.16645c9.55891,0 19.11639,0 28.67531,0c0,2.37029 0,4.74076 0,7.11105c-9.55891,0 -19.11639,0 -28.67531,0c0,-2.37029 0,-4.74076 0,-7.11105z" id="svg_54"/>
   </g>
   <g stroke="null" id="svg_55">
    <path stroke="null" fill="#919291" d="m124.29519,33.72197c14.55702,-1.76745 29.37212,-2.36016 44.44672,-1.77776c0.433,4.54983 -0.04588,8.69788 -1.43377,12.44434c0,-3.55553 0,-7.11105 0,-10.66658c-14.33765,0 -28.67531,0 -43.01296,0z" id="svg_56"/>
   </g>
   <g stroke="null" id="svg_57">
    <path stroke="null" fill="#f1f1f1" d="m171.60945,31.94421c1.91121,0 3.82385,0 5.73506,0c0.23801,11.86657 0,23.71838 -0.71688,35.55527c-3.41523,1.87394 -6.99964,3.05918 -10.75324,3.55553c-1.80368,-9.33219 -0.13047,-17.62848 5.01818,-24.88869c0.71258,-4.70396 0.95202,-9.44472 0.71688,-14.22211z" id="svg_58"/>
   </g>
   <g stroke="null" id="svg_59">
    <path stroke="null" fill="#fbfbfb" d="m201.71852,31.94421c0,9.48134 0,18.96287 0,28.44421c-1.91121,0 -3.82385,0 -5.73506,0c0,-9.48134 0,-18.96287 0,-28.44421c1.91121,0 3.82385,0 5.73506,0z" id="svg_60"/>
   </g>
   <g stroke="null" id="svg_61">
    <path stroke="null" fill="#f7f9f7" d="m124.29519,33.72197c14.33765,0 28.67531,0 43.01296,0c0,3.55553 0,7.11105 0,10.66658c-14.33765,0 -28.67531,0 -43.01296,0c0,-3.55553 0,-7.11105 0,-10.66658z" id="svg_62"/>
   </g>
   <g stroke="null" id="svg_63">
    <path stroke="null" fill="#eeeeee" d="m637.58316,31.94421c3.93855,-0.55715 7.76241,0.03556 11.47012,1.77776c-5.63326,10.84187 -12.08521,20.91574 -19.35583,30.22198c-1.19433,-3.85188 -3.34497,-6.51852 -6.45194,-7.99993c5.6433,-7.28154 10.42347,-15.28148 14.33765,-23.9998z" id="svg_64"/>
   </g>
   <g stroke="null" id="svg_65">
    <path stroke="null" fill="#eff1ef" d="m650.48705,76.38829c6.28563,0.57884 12.49813,-0.01387 18.63895,-1.77776c-0.17779,-1.07857 -0.65523,-1.6711 -1.43377,-1.77776c-2.07179,-4.65454 -4.46044,-9.09895 -7.16883,-13.33322c2.39009,-2.07412 4.77874,-4.14806 7.16883,-6.22217c9.27646,11.12098 16.44529,24.15785 21.50648,39.11079c-2.19223,3.00104 -4.82175,5.37133 -7.88571,7.11105c-1.97429,-4.00672 -4.12494,-7.8586 -6.45194,-11.55546c-11.00271,-0.71893 -21.99539,-0.42275 -32.9766,0.88888c-1.42516,16.86315 -1.90261,34.04808 -1.43377,51.55514c-2.86753,0 -5.73506,0 -8.60259,0c0.23801,-17.19524 0,-34.38034 -0.71688,-51.55514c-14.01506,1.29794 -28.1147,2.48318 -42.29608,3.55553c-4.99954,-1.64745 -6.91075,-5.79569 -5.73506,-12.44434c14.31901,-1.11981 28.65667,-2.00869 43.01296,-2.66664c10.35035,-14.89623 20.38671,-30.00722 30.10907,-45.33296c2.39009,2.37029 4.77874,4.74076 7.16883,7.11105c-7.12725,12.63119 -14.77352,24.77918 -22.94024,36.44415c3.312,0.88284 6.65697,1.17919 10.03636,0.88888z" id="svg_66"/>
   </g>
   <g stroke="null" id="svg_67">
    <path stroke="null" fill="#e6e6e6" d="m600.30526,37.2775c4.02028,-2.02274 8.32157,-2.31909 12.90389,-0.88888c-0.93912,2.64282 -2.37288,4.71694 -4.3013,6.22217c-2.49905,-2.73473 -5.36658,-4.5125 -8.60259,-5.33329z" id="svg_68"/>
   </g>
   <g stroke="null" id="svg_69">
    <path stroke="null" fill="#121212" d="m95.61989,56.8329c-16.72731,2.37029 -33.45448,2.37029 -50.18178,0c10.78263,-2.39394 19.62409,-8.91246 26.52466,-19.5554c6.57224,9.05148 14.45795,15.57001 23.65713,19.5554z" id="svg_70"/>
   </g>
   <g stroke="null" id="svg_71">
    <path stroke="null" fill="#e7e9e7" d="m38.26928,46.16632c-4.83294,4.17028 -9.61211,8.31851 -14.33765,12.44434c-3.27859,0.39804 -6.38513,1.58328 -9.31947,3.55553c-3.18783,-3.16477 -4.86061,-7.31283 -5.01818,-12.44434c8.21476,-1.98274 15.62259,-6.13079 22.22336,-12.44434c3.44247,1.59785 5.59312,4.56085 6.45194,8.88882z" id="svg_72"/>
   </g>
   <g stroke="null" id="svg_73">
    <path stroke="null" fill="#979897" d="m485.60404,40.83303c5.73506,0 11.47012,0 17.20518,0c0.42296,3.97401 -0.05592,7.52954 -1.43377,10.66658c0,-2.963 0,-5.92582 0,-8.88882c-5.55011,0.56 -10.80772,-0.03271 -15.77142,-1.77776z" id="svg_74"/>
   </g>
   <g stroke="null" id="svg_75">
    <path stroke="null" fill="#121212" d="m38.26928,46.16632c0.14854,3.91606 1.10429,7.47158 2.86753,10.66658c-5.44601,1.74825 -11.18108,2.34096 -17.20518,1.77776c4.72555,-4.12583 9.50472,-8.27407 14.33765,-12.44434z" id="svg_76"/>
   </g>
   <g stroke="null" id="svg_77">
    <path stroke="null" fill="#f8fbf8" d="m130.03026,51.49961c10.5138,0 21.02904,0 31.54284,0c0,3.55553 0,7.11105 0,10.66658c-10.5138,0 -21.02904,0 -31.54284,0c0,-3.55553 0,-7.11105 0,-10.66658z" id="svg_78"/>
   </g>
   <g stroke="null" id="svg_79">
    <path stroke="null" fill="#cacaca" d="m71.24588,44.38855c3.20604,4.25472 7.02932,7.51389 11.47012,9.7777c-6.69095,1.18523 -13.38176,1.18523 -20.07271,0c3.57896,-2.3662 6.4465,-5.62555 8.60259,-9.7777z" id="svg_80"/>
   </g>
   <g stroke="null" id="svg_81">
    <path stroke="null" fill="#787978" d="m41.13681,56.8329c1.43377,0 2.86753,0 4.3013,0c16.72731,2.37029 33.45448,2.37029 50.18178,0c2.72846,0.52604 5.11854,1.7111 7.16883,3.55553c0.47028,21.05814 -0.00717,41.79877 -1.43377,62.22172c0,-20.74063 0,-41.48108 0,-62.22172c-25.80777,0 -51.61555,0 -77.42332,0c0,-0.59253 0,-1.18523 0,-1.77776c6.02411,0.5632 11.75917,-0.02951 17.20518,-1.77776z" id="svg_82"/>
   </g>
   <g stroke="null" id="svg_83">
    <path stroke="null" fill="#484848" d="m399.57813,58.61066c12.91249,-0.29582 25.81638,0.00036 38.71166,0.88888c-7.1803,0.8903 -14.34912,1.77919 -21.50648,2.66664c-5.73506,-1.18523 -11.47012,-2.37029 -17.20518,-3.55553z" id="svg_84"/>
   </g>
   <g stroke="null" id="svg_85">
    <path stroke="null" fill="#8c8d8c" d="m469.83262,56.8329c0,10.07405 0,20.14792 0,30.22198c2.86753,0 5.73506,0 8.60259,0c-3.02094,1.72123 -6.36735,2.31394 -10.03636,1.77776c-0.46311,-11.00435 0.01434,-21.67093 1.43377,-31.99974z" id="svg_86"/>
   </g>
   <g stroke="null" id="svg_87">
    <path stroke="null" fill="#edefed" d="m23.93163,60.38842c25.80777,0 51.61555,0 77.42332,0c0,20.74063 0,41.48108 0,62.22172c-15.15404,0.04356 -15.15404,1.22843 0,3.55553c3.89411,0.31644 7.71796,1.20532 11.47012,2.66664c1.19433,3.69953 1.19433,7.55194 0,11.55546c-11.46869,-1.95376 -22.93838,-4.02841 -34.41037,-6.22217c-0.91517,-3.03464 -0.91517,-6.29328 0,-9.7777c-10.76729,-2.34647 -21.75954,-2.34647 -32.9766,0c0.17721,1.0791 0.65509,1.6711 1.43377,1.77776c0.24374,2.3502 -0.23428,4.42485 -1.43377,6.22217c-10.61431,5.21596 -21.60656,8.4746 -32.9766,9.7777c-0.79918,-4.35374 -0.79918,-8.50126 0,-12.44434c5.62509,-1.95198 11.36015,-3.13775 17.20518,-3.55553c1.81515,-1.04888 3.72679,-1.93776 5.73506,-2.66664c-3.79374,-0.88426 -7.61716,-1.18061 -11.47012,-0.88888c0,-20.74063 0,-41.48108 0,-62.22172z" id="svg_88"/>
   </g>
   <g stroke="null" id="svg_89">
    <path stroke="null" fill="#8b8b8b" d="m399.57813,58.61066c5.73506,1.18523 11.47012,2.37029 17.20518,3.55553c-6.75877,0.58062 -13.44872,-0.01191 -20.07271,-1.77776c0.65523,-1.41777 1.61155,-2.01047 2.86753,-1.77776z" id="svg_90"/>
   </g>
   <g stroke="null" id="svg_91">
    <path stroke="null" fill="#f1f3f1" d="m458.3625,95.94369c0,3.55553 0,7.11105 0,10.66658c-9.35102,-0.57511 -18.43105,0.01742 -27.24154,1.77776c0,5.92582 0,11.85181 0,17.77763c8.33018,1.75999 16.93277,2.35198 25.80777,1.77776c0,2.96353 0,5.92529 0,8.88882c-21.02904,0 -42.05664,0 -63.08567,0c0,-2.96353 0,-5.92529 0,-8.88882c9.35102,0.57422 18.43105,-0.01778 27.24154,-1.77776c0,-5.92582 0,-11.85181 0,-17.77763c-9.55891,0 -19.11639,0 -28.67531,0c0,-4.14806 0,-8.29629 0,-12.44434c9.55891,0 19.11639,0 28.67531,0c0,-5.92582 0,-11.85181 0,-17.77763c-8.12515,0 -16.24886,0 -24.37401,0c0,-2.37029 0,-4.74076 0,-7.11105c6.32721,-2.91269 13.01715,-4.69045 20.07271,-5.33329c12.05797,-0.60782 24.00697,-2.38558 35.84413,-5.33329c1.35061,0.19235 2.54493,0.78488 3.58441,1.77776c0.70971,3.50699 0.94915,7.06252 0.71688,10.66658c-8.48646,2.3454 -17.08905,3.53064 -25.80777,3.55553c0,6.51852 0,13.03687 0,19.5554c9.08004,0 18.1615,0 27.24154,0z" id="svg_92"/>
   </g>
   <g stroke="null" id="svg_93">
    <path stroke="null" fill="#d8d8d8" d="m656.22211,58.61066c1.3162,4.1253 3.22884,7.977 5.73506,11.55546c-4.3013,1.18523 -8.60259,1.18523 -12.90389,0c3.24748,-3.12549 5.63757,-6.97737 7.16883,-11.55546z" id="svg_94"/>
   </g>
   <g stroke="null" id="svg_95">
    <path stroke="null" fill="#959695" d="m416.78331,65.72171c-7.05556,0.64284 -13.74551,2.4206 -20.07271,5.33329c-1.29612,-1.26043 -1.77357,-3.0382 -1.43377,-5.33329c7.16883,0 14.33765,0 21.50648,0z" id="svg_96"/>
   </g>
   <g stroke="null" id="svg_97">
    <path stroke="null" fill="#969696" d="m386.67424,65.72171c1.53126,-1.66132 3.44247,-2.25385 5.73506,-1.77776c0.2251,2.44158 -0.01434,4.81205 -0.71688,7.11105c-1.48968,-2.15127 -3.16289,-3.92903 -5.01818,-5.33329z" id="svg_98"/>
   </g>
   <g stroke="null" id="svg_99">
    <path stroke="null" fill="#f8fbf8" d="m130.03026,69.27724c10.5138,0 21.02904,0 31.54284,0c0,3.55553 0,7.11105 0,10.66658c-10.5138,0 -21.02904,0 -31.54284,0c0,-3.55553 0,-7.11105 0,-10.66658z" id="svg_100"/>
   </g>
   <g stroke="null" id="svg_101">
    <path stroke="null" fill="#060706" d="m33.96798,71.055c19.59484,0 39.18954,0 58.78438,0c0,1.77776 0,3.55553 0,5.33329c-19.59484,0 -39.18954,0 -58.78438,0c0,-1.77776 0,-3.55553 0,-5.33329z" id="svg_102"/>
   </g>
   <g stroke="null" id="svg_103">
    <path stroke="null" fill="#989998" d="m545.82218,74.61053c-17.20518,0 -34.41037,0 -51.61555,0c0,3.55553 0,7.11105 0,10.66658c-1.38788,-3.74646 -1.86676,-7.89451 -1.43377,-12.44434c17.93784,-0.58417 35.6219,0.00853 53.04931,1.77776z" id="svg_104"/>
   </g>
   <g stroke="null" id="svg_105">
    <path stroke="null" fill="#9c9c9c" d="m482.73651,74.61053c2.03451,-1.69083 4.42317,-2.28354 7.16883,-1.77776c0,4.14806 0,8.29629 0,12.44434c-1.37785,-3.13704 -1.85673,-6.69257 -1.43377,-10.66658c-1.91121,0 -3.82385,0 -5.73506,0z" id="svg_106"/>
   </g>
   <g stroke="null" id="svg_107">
    <path stroke="null" fill="#f2f4f2" d="m545.82218,74.61053c2.5349,3.56939 4.92355,7.4211 7.16883,11.55546c-8.30007,3.8933 -15.94634,8.93024 -22.94024,15.11099c12.64294,1.76585 25.54683,2.35838 38.71166,1.77776c0,3.55553 0,7.11105 0,10.66658c-10.99268,0 -21.98392,0 -32.9766,0c2.20226,17.69052 -3.77224,27.17133 -17.92207,28.44421c-5.7494,-0.00533 -11.24645,-1.48621 -16.4883,-4.44441c-2.04455,-4.81952 -1.56567,-9.26392 1.43377,-13.33322c6.06913,5.08796 12.76051,6.56884 20.07271,4.44441c3.30483,-4.61152 3.78227,-9.64757 1.43377,-15.11099c-16.72774,0 -33.45405,0 -50.18178,0c0,-3.55553 0,-7.11105 0,-10.66658c14.84664,0.59004 29.66174,-0.00249 44.44672,-1.77776c-0.17779,-1.07857 -0.65523,-1.6711 -1.43377,-1.77776c-1.13267,-2.30078 -2.56644,-4.3749 -4.3013,-6.22217c6.66127,-0.58026 12.87378,-2.95055 18.63895,-7.11105c-12.41641,-0.88853 -24.84285,-1.1847 -37.2779,-0.88888c0,-3.55553 0,-7.11105 0,-10.66658c17.20518,0 34.41037,0 51.61555,0z" id="svg_108"/>
   </g>
   <g stroke="null" id="svg_109">
    <path stroke="null" fill="#909190" d="m667.69223,72.83277c0.77853,0.10667 1.25598,0.69919 1.43377,1.77776c-6.14082,1.7639 -12.35332,2.3566 -18.63895,1.77776c5.73506,-1.18523 11.47012,-2.37029 17.20518,-3.55553z" id="svg_110"/>
   </g>
   <g stroke="null" id="svg_111">
    <path stroke="null" fill="#999a99" d="m382.37294,81.72158c-1.4266,19.82988 -1.90404,39.97781 -1.43377,60.44395c-3.66901,0.53688 -7.01541,-0.05689 -10.03636,-1.77776c2.86753,0 5.73506,0 8.60259,0c-0.23944,-20.74899 0,-41.48962 0.71688,-62.22172c1.02801,0.96746 1.74489,2.15269 2.15065,3.55553z" id="svg_112"/>
   </g>
   <g stroke="null" id="svg_113">
    <path stroke="null" fill="#949494" d="m200.28475,83.49935c0.08603,-0.9655 0.56347,-1.55803 1.43377,-1.77776c1.40509,4.59818 1.88253,9.33877 1.43377,14.22211c-0.95632,-4.14806 -1.91121,-8.29629 -2.86753,-12.44434z" id="svg_114"/>
   </g>
   <g stroke="null" id="svg_115">
    <path stroke="null" fill="#f9f9f9" d="m399.57813,83.49935c5.73506,0 11.47012,0 17.20518,0c0,2.37029 0,4.74076 0,7.11105c-6.23114,0.29458 -12.44365,-0.00178 -18.63895,-0.88888c1.20006,-1.79785 1.67751,-3.87179 1.43377,-6.22217z" id="svg_116"/>
   </g>
   <g stroke="null" id="svg_117">
    <path stroke="null" fill="#060706" d="m33.96798,87.05487c19.59484,0 39.18954,0 58.78438,0c0,2.37029 0,4.74076 0,7.11105c-19.59484,0 -39.18954,0 -58.78438,0c0,-2.37029 0,-4.74076 0,-7.11105z" id="svg_118"/>
   </g>
   <g stroke="null" id="svg_119">
    <path stroke="null" fill="#eef0ee" d="m138.63285,133.27672c-2.80444,2.92975 -6.14942,4.11552 -10.03636,3.55553c0,-16.5924 0,-33.18497 0,-49.77737c11.83143,-0.56142 23.54099,0.03111 35.12725,1.77776c0.95632,14.22211 0.95632,28.44421 0,42.66632c-8.23125,1.73332 -16.59583,2.32531 -25.09089,1.77776z" id="svg_120"/>
   </g>
   <g stroke="null" id="svg_121">
    <path stroke="null" fill="#c4c5c4" d="m641.88446,88.83264c0,17.77763 0,35.55527 0,53.3329c-3.66901,0.53688 -7.01541,-0.05689 -10.03636,-1.77776c2.86753,0 5.73506,0 8.60259,0c-0.46884,-17.50706 0.0086,-34.69198 1.43377,-51.55514z" id="svg_122"/>
   </g>
   <g stroke="null" id="svg_123">
    <path stroke="null" fill="#888888" d="m170.17568,92.38816c-1.85959,8.47442 -1.85959,16.77053 0,24.88869c-0.69824,1.73047 -1.41513,3.50824 -2.15065,5.33329c-0.23944,-5.03694 -0.47744,-10.07405 -0.71688,-15.11099c0.02724,-5.7804 0.98356,-10.81751 2.86753,-15.11099z" id="svg_124"/>
   </g>
   <g stroke="null" id="svg_125">
    <path stroke="null" fill="#f2f2f2" d="m170.17568,92.38816c1.91121,0 3.82385,0 5.73506,0c-1.04235,8.61522 -2.95356,16.91151 -5.73506,24.88869c-1.85959,-8.11816 -1.85959,-16.41427 0,-24.88869z" id="svg_126"/>
   </g>
   <g stroke="null" id="svg_127">
    <path stroke="null" fill="#8e8e8e" d="m386.67424,97.72145c-0.95632,14.81463 -1.91121,29.62998 -2.86753,44.44408c-0.23801,-16.01054 0,-32.01076 0.71688,-47.99961c1.02801,0.96746 1.74489,2.15269 2.15065,3.55553z" id="svg_128"/>
   </g>
   <g stroke="null" id="svg_129">
    <path stroke="null" fill="#959595" d="m627.5468,95.94369c-3.20447,-0.52391 -6.072,0.06862 -8.60259,1.77776c-0.77853,-0.10667 -1.25598,-0.69919 -1.43377,-1.77776c3.5457,-2.30558 6.89211,-2.30558 10.03636,0z" id="svg_130"/>
   </g>
   <g stroke="null" id="svg_131">
    <path stroke="null" fill="#878787" d="m547.25595,94.16593c7.16883,1.18523 14.33765,2.37029 21.50648,3.55553c-8.6155,0.29546 -17.21809,-0.00089 -25.80777,-0.88888c1.47248,-0.91253 2.90624,-1.80141 4.3013,-2.66664z" id="svg_132"/>
   </g>
   <g stroke="null" id="svg_133">
    <path stroke="null" fill="#7f7f7f" d="m583.10008,95.94369c7.1846,-0.29493 14.35342,0.00124 21.50648,0.88888c-0.77997,1.27501 -1.73629,2.16389 -2.86753,2.66664c-6.2125,-1.18523 -12.42644,-2.37029 -18.63895,-3.55553z" id="svg_134"/>
   </g>
   <g stroke="null" id="svg_135">
    <path stroke="null" fill="#080808" d="m138.63285,97.72145c5.25762,0 10.5138,0 15.77142,0c0,7.70358 0,15.40734 0,23.11092c-5.25762,0 -10.5138,0 -15.77142,0c0,-7.70358 0,-15.40734 0,-23.11092z" id="svg_136"/>
   </g>
   <g stroke="null" id="svg_137">
    <path stroke="null" fill="#ebedeb" d="m607.47409,97.72145c3.84106,0.30684 7.18747,2.08461 10.03636,5.33329c-8.03339,13.81784 -16.87398,26.85489 -26.52466,39.11079c-2.41589,-2.69687 -4.56654,-5.6604 -6.45194,-8.88882c9.31517,-10.34694 16.96144,-22.19857 22.94024,-35.55527z" id="svg_138"/>
   </g>
   <g stroke="null" id="svg_139">
    <path stroke="null" fill="#edefed" d="m661.95717,95.94369c10.27436,10.66178 18.87695,23.10612 25.80777,37.33303c-1.58431,2.47465 -3.49695,4.5493 -5.73506,6.22217c-1.36064,1.09688 -2.55497,0.80177 -3.58441,-0.88888c-6.48492,-11.32257 -13.65375,-21.99004 -21.50648,-31.99974c-0.95632,-1.18523 -0.95632,-2.37029 0,-3.55553c1.97286,-2.14238 3.64463,-4.51267 5.01818,-7.11105z" id="svg_140"/>
   </g>
   <g stroke="null" id="svg_141">
    <path stroke="null" fill="#979897" d="m517.14688,99.49922c0.77853,0.10667 1.25598,0.69919 1.43377,1.77776c-14.78499,1.77527 -29.60008,2.3678 -44.44672,1.77776c14.33765,-1.18523 28.67531,-2.37029 43.01296,-3.55553z" id="svg_142"/>
   </g>
   <g stroke="null" id="svg_143">
    <path stroke="null" fill="#919291" d="m530.05077,101.27698c13.38133,0 26.7641,0 40.14543,0c0.433,4.54983 -0.04588,8.69788 -1.43377,12.44434c0,-3.55553 0,-7.11105 0,-10.66658c-13.16483,0.58062 -26.06872,-0.01191 -38.71166,-1.77776z" id="svg_144"/>
   </g>
   <g stroke="null" id="svg_145">
    <path stroke="null" fill="#8a8b8a" d="m142.93414,103.05474c0,4.14806 0,8.29629 0,12.44434c2.39009,0 4.77874,0 7.16883,0c-2.5306,1.70914 -5.39813,2.30167 -8.60259,1.77776c-0.43873,-5.12956 0.03871,-9.87032 1.43377,-14.22211z" id="svg_146"/>
   </g>
   <g stroke="null" id="svg_147">
    <path stroke="null" fill="#fefffe" d="m142.93414,103.05474c2.39009,0 4.77874,0 7.16883,0c0,4.14806 0,8.29629 0,12.44434c-2.39009,0 -4.77874,0 -7.16883,0c0,-4.14806 0,-8.29629 0,-12.44434z" id="svg_148"/>
   </g>
   <g stroke="null" id="svg_149">
    <path stroke="null" fill="#060706" d="m33.96798,104.83251c19.59484,0 39.18954,0 58.78438,0c0,2.37029 0,4.74076 0,7.11105c-19.59484,0 -39.18954,0 -58.78438,0c0,-2.37029 0,-4.74076 0,-7.11105z" id="svg_150"/>
   </g>
   <g stroke="null" id="svg_151">
    <path stroke="null" fill="#8e8f8e" d="m458.3625,95.94369c1.38788,3.74646 1.86676,7.89451 1.43377,12.44434c-9.55891,0 -19.11639,0 -28.67531,0c8.81049,-1.76034 17.89052,-2.35287 27.24154,-1.77776c0,-3.55553 0,-7.11105 0,-10.66658z" id="svg_152"/>
   </g>
   <g stroke="null" id="svg_153">
    <path stroke="null" fill="#767676" d="m458.3625,111.94356c-7.36955,1.75661 -15.01726,2.34914 -22.94024,1.77776c0,2.37029 0,4.74076 0,7.11105c7.92299,-0.57137 15.57069,0.02116 22.94024,1.77776c-8.12515,0 -16.24886,0 -24.37401,0c0,-3.55553 0,-7.11105 0,-10.66658c8.12515,0 16.24886,0 24.37401,0z" id="svg_154"/>
   </g>
   <g stroke="null" id="svg_155">
    <path stroke="null" fill="#666766" d="m23.93163,122.61014c3.85296,-0.29173 7.67638,0.00462 11.47012,0.88888c-2.00828,0.72888 -3.91991,1.61776 -5.73506,2.66664c-1.91164,-1.18577 -3.82342,-2.36976 -5.73506,-3.55553z" id="svg_156"/>
   </g>
   <g stroke="null" id="svg_157">
    <path stroke="null" fill="#6f706f" d="m78.41471,124.3879c-10.78062,-0.57777 -21.29486,0.01422 -31.54284,1.77776c-0.77868,-0.10667 -1.25655,-0.69866 -1.43377,-1.77776c11.21706,-2.34647 22.20931,-2.34647 32.9766,0z" id="svg_158"/>
   </g>
   <g stroke="null" id="svg_159">
    <path stroke="null" fill="#808180" d="m101.35495,122.61014c0,1.18577 0,2.36976 0,3.55553c-15.15404,-2.32709 -15.15404,-3.51197 0,-3.55553z" id="svg_160"/>
   </g>
   <g stroke="null" id="svg_161">
    <path stroke="null" fill="#bababa" d="m74.11341,135.05448c-1.29612,-1.26043 -1.774,-3.0382 -1.43377,-5.33329c-7.60899,-0.9351 -14.77782,0.24889 -21.50648,3.55553c0,-1.77776 0,-3.55553 0,-5.33329c7.6467,0 15.29354,0 22.94024,0c0,2.36976 0,4.74129 0,7.11105z" id="svg_162"/>
   </g>
   <g stroke="null" id="svg_163">
    <path stroke="null" fill="#969796" d="m138.63285,133.27672c0,1.77776 0,3.55553 0,5.33329c-3.66901,0.53688 -7.01541,-0.05689 -10.03636,-1.77776c3.88694,0.56 7.23191,-0.62577 10.03636,-3.55553z" id="svg_164"/>
   </g>
   <g stroke="null" id="svg_165">
    <path stroke="null" fill="#c5c6c5" d="m421.0846,126.16567c-8.81049,1.75999 -17.89052,2.35198 -27.24154,1.77776c0,2.96353 0,5.92529 0,8.88882c21.02904,0 42.05664,0 63.08567,0c0,-2.96353 0,-5.92529 0,-8.88882c-8.87501,0.57422 -17.4776,-0.01778 -25.80777,-1.77776c9.08004,0 18.1615,0 27.24154,0c0,4.14752 0,8.29682 0,12.44434c-21.98392,0 -43.96928,0 -65.9532,0c0,-4.14752 0,-8.29682 0,-12.44434c9.55891,0 19.11639,0 28.67531,0z" id="svg_166"/>
   </g>
  </g>
 </g>

</svg>