<svg width="800" height="200" xmlns="http://www.w3.org/2000/svg" clip-rule="evenodd" version="1.1">

 <g>
  <title>Layer 1</title>
  <g stroke="null" id="svg_13">

   <g stroke="null" id="svg_3">
    <path stroke="null" id="svg_4" d="m312.85312,27.3972c18.32641,-0.48653 36.527,0.44338 54.59941,2.78972c3.92878,4.6633 5.90861,9.93289 5.93472,15.80841c1.9632,7.51569 1.56677,14.95494 -1.18694,22.31776c-7.49674,-8.59773 -13.43145,-17.8968 -17.80415,-27.8972c-8.7549,-9.68182 -20.22789,-11.85166 -34.42137,-6.50935c-20.64807,11.21095 -33.70445,26.39949 -39.16914,45.56542c-2.53294,20.08561 -0.94955,39.92368 4.74777,59.51402c12.80237,19.42854 32.98042,27.17782 60.53413,23.24766c8.94006,-0.75397 17.6451,-2.30375 26.11276,-4.64953c1.58338,0.61988 3.16439,1.23994 4.74777,1.85981c-33.02077,16.06339 -67.8362,18.85311 -104.45104,8.36916c-28.6362,-12.935 -42.08902,-32.46304 -40.35608,-58.58411c1.16107,-43.045 28.0641,-70.32232 80.71217,-81.83178z" fill="#0c0c0c"/>
   </g>
   <g stroke="null" id="svg_5">
    <path stroke="null" id="svg_6" d="m80.21217,170.6028c-17.06018,0.60351 -33.67739,-0.01637 -49.85163,-1.85981c4.37555,-1.45605 9.12332,-2.6958 14.24332,-3.71963c2.87478,-42.80769 2.08356,-85.58339 -2.37389,-128.3271c-5.75715,-1.50199 -11.29614,-3.3618 -16.61721,-5.57944c18.14837,-2.16631 36.34825,-2.47634 54.59941,-0.92991c30.75988,36.10716 61.22469,72.37351 91.39466,108.79907c1.93092,-34.13966 1.1397,-68.23636 -2.37389,-102.28972c-7.41602,-1.97252 -14.93341,-3.83233 -22.55193,-5.57944c19.73507,-2.16687 39.51739,-2.47671 59.34718,-0.92991c-5.69163,2.52246 -11.62635,4.69212 -17.80415,6.50935c-4.62671,45.1849 -6.6051,90.44029 -5.93472,135.76636c-11.87513,3.98558 -21.76641,2.12577 -29.67359,-5.57944c-30.06932,-30.99695 -60.1384,-61.99371 -90.20772,-92.99065c-2.86338,30.36573 -4.44582,60.74261 -4.74777,91.13084c7.70208,1.99316 15.21947,3.85297 22.55193,5.57944z" fill="#090909"/>
   </g>
   <g stroke="null" id="svg_7">
    <path stroke="null" id="svg_8" d="m398.31307,29.25701c27.74125,-0.61783 55.43502,0.00205 83.08606,1.85981c-6.53294,0.92544 -12.07122,3.09529 -16.61721,6.50935c11.1003,24.46194 23.76024,48.32966 37.9822,71.6028c15.88131,-23.63915 27.75074,-48.43679 35.60831,-74.39252c-4.81187,0.30148 -9.55964,-0.00837 -14.24332,-0.92991c-1.08487,-0.76996 -1.87774,-1.69987 -2.37389,-2.78972c18.9911,-2.47969 37.9822,-2.47969 56.9733,0c-5.33412,1.38482 -9.68546,3.86469 -13.05638,7.43925c-19.58932,25.11194 -38.58042,50.52945 -56.9733,76.25234c-1.18694,17.34722 -1.58101,34.70541 -1.18694,52.07477c6.53769,0.52912 12.86647,1.76905 18.9911,3.71963c-26.11276,2.47969 -52.22552,2.47969 -78.33828,0c5.58101,-3.21543 11.91217,-4.45537 18.9911,-3.71963c0.39407,-16.74985 0,-33.48817 -1.18694,-50.21495c-18.76795,-26.30315 -36.96855,-52.96041 -54.59941,-79.97196c-5.48605,-1.66788 -9.83739,-4.14757 -13.05638,-7.43925z" fill="#0c0c0c"/>
   </g>
   <g stroke="null" id="svg_9">
    <path stroke="null" id="svg_10" d="m600.09349,29.25701c25.36973,-0.61746 50.69199,0.00242 75.96439,1.85981c-6.12463,1.95057 -12.45341,3.19051 -18.9911,3.71963c-3.52522,35.37048 -3.12878,70.70693 1.18694,106.00935c1.90623,11.40809 8.63383,20.39713 20.17804,26.96729c8.70504,1.23994 17.40772,1.23994 26.11276,0c12.61721,-9.13131 19.34243,-20.60022 20.17804,-34.40654c2.16499,-32.30942 1.37448,-64.5463 -2.37389,-96.71028c-5.5905,-2.43282 -11.52522,-4.29263 -17.80415,-5.57944c23.73887,-2.47969 47.47775,-2.47969 71.21662,0c-2.93412,1.5933 -6.09852,2.83324 -9.49555,3.71963c-0.7905,4.02966 -1.58338,8.05913 -2.37389,12.08879c2.46647,25.08739 2.86291,50.19487 1.18694,75.32243c-8.08546,34.82444 -34.98872,52.18264 -80.71217,52.07477c-35.2,1.74134 -58.93887,-10.0376 -71.21662,-35.33645c-2.43798,-12.62367 -3.62493,-25.33251 -3.56083,-38.12617c0.86172,-22.04734 2.4451,-44.05507 4.74777,-66.02336c-6.44748,0.21165 -11.19525,-1.64817 -14.24332,-5.57944z" fill="#070707"/>
   </g>

  </g>
 </g>
</svg>