<?xml version="1.0" encoding="UTF-8"?>
<!DOCTYPE svg PUBLIC "-//W3C//DTD SVG 1.1//EN" "http://www.w3.org/Graphics/SVG/1.1/DTD/svg11.dtd">
<svg xmlns="http://www.w3.org/2000/svg" version="1.1" width="337px" height="107px" style="shape-rendering:geometricPrecision; text-rendering:geometricPrecision; image-rendering:optimizeQuality; fill-rule:evenodd; clip-rule:evenodd" xmlns:xlink="http://www.w3.org/1999/xlink">
<g><path style="opacity:1" fill="#fbfbfb" d="M -0.5,-0.5 C 111.833,-0.5 224.167,-0.5 336.5,-0.5C 336.5,35.1667 336.5,70.8333 336.5,106.5C 224.167,106.5 111.833,106.5 -0.5,106.5C -0.5,70.8333 -0.5,35.1667 -0.5,-0.5 Z"/></g>
<g><path style="opacity:1" fill="#0c0c0c" d="M 131.5,14.5 C 139.22,14.2384 146.887,14.7384 154.5,16C 156.155,18.5074 156.989,21.3408 157,24.5C 157.827,28.5411 157.66,32.5411 156.5,36.5C 153.342,31.8771 150.842,26.8771 149,21.5C 145.312,16.2942 140.479,15.1275 134.5,18C 125.802,24.028 120.302,32.1947 118,42.5C 116.933,53.2998 117.6,63.9665 120,74.5C 125.393,84.9465 133.893,89.1132 145.5,87C 149.266,86.5946 152.933,85.7613 156.5,84.5C 157.167,84.8333 157.833,85.1667 158.5,85.5C 144.59,94.1371 129.924,95.6371 114.5,90C 102.437,83.045 96.77,72.545 97.5,58.5C 97.9891,35.3552 109.322,20.6885 131.5,14.5 Z"/></g>
<g><path style="opacity:1" fill="#090909" d="M 33.5,91.5 C 26.3134,91.8245 19.3134,91.4912 12.5,90.5C 14.3432,89.7171 16.3432,89.0505 18.5,88.5C 19.711,65.4828 19.3777,42.4828 17.5,19.5C 15.0748,18.6924 12.7415,17.6924 10.5,16.5C 18.145,15.3352 25.8117,15.1685 33.5,16C 46.4576,35.4144 59.2909,54.9144 72,74.5C 72.8134,56.1435 72.4801,37.8101 71,19.5C 67.876,18.4394 64.7093,17.4394 61.5,16.5C 69.8134,15.3349 78.1467,15.1683 86.5,16C 84.1024,17.3563 81.6024,18.5229 79,19.5C 77.051,43.7954 76.2176,68.1287 76.5,92.5C 71.4976,94.643 67.3309,93.643 64,89.5C 51.3333,72.8333 38.6667,56.1667 26,39.5C 24.7938,55.8273 24.1272,72.1606 24,88.5C 27.2445,89.5717 30.4112,90.5717 33.5,91.5 Z"/></g>
<g><path style="opacity:1" fill="#0c0c0c" d="M 167.5,15.5 C 179.186,15.1678 190.852,15.5011 202.5,16.5C 199.748,16.9976 197.415,18.1643 195.5,20C 200.176,33.1529 205.509,45.9863 211.5,58.5C 218.19,45.7895 223.19,32.4561 226.5,18.5C 224.473,18.6621 222.473,18.4955 220.5,18C 220.043,17.586 219.709,17.086 219.5,16.5C 227.5,15.1667 235.5,15.1667 243.5,16.5C 241.253,17.2446 239.42,18.578 238,20.5C 229.748,34.0024 221.748,47.6691 214,61.5C 213.5,70.8274 213.334,80.1607 213.5,89.5C 216.254,89.7845 218.92,90.4512 221.5,91.5C 210.5,92.8333 199.5,92.8333 188.5,91.5C 190.851,89.7711 193.518,89.1044 196.5,89.5C 196.666,80.4938 196.5,71.4938 196,62.5C 188.094,48.3571 180.427,34.0238 173,19.5C 170.689,18.6032 168.856,17.2699 167.5,15.5 Z"/></g>
<g><path style="opacity:1" fill="#070707" d="M 252.5,15.5 C 263.187,15.168 273.854,15.5013 284.5,16.5C 281.92,17.5488 279.254,18.2155 276.5,18.5C 275.015,37.5183 275.182,56.5183 277,75.5C 277.803,81.634 280.637,86.4673 285.5,90C 289.167,90.6667 292.833,90.6667 296.5,90C 301.815,85.0902 304.648,78.9235 305,71.5C 305.912,54.1276 305.579,36.7942 304,19.5C 301.645,18.1919 299.145,17.1919 296.5,16.5C 306.5,15.1667 316.5,15.1667 326.5,16.5C 325.264,17.3567 323.931,18.0234 322.5,18.5C 322.167,20.6667 321.833,22.8333 321.5,25C 322.539,38.4892 322.706,51.9892 322,65.5C 318.594,84.2247 307.261,93.558 288,93.5C 273.172,94.4363 263.172,88.1029 258,74.5C 256.973,67.7124 256.473,60.879 256.5,54C 256.863,42.1454 257.53,30.3121 258.5,18.5C 255.784,18.6138 253.784,17.6138 252.5,15.5 Z"/></g>
<g><path style="opacity:1" fill="#5e5e5e" d="M 12.5,90.5 C 19.3134,91.4912 26.3134,91.8245 33.5,91.5C 26.3231,92.8194 18.9898,92.8194 11.5,91.5C 11.6236,90.8933 11.9569,90.56 12.5,90.5 Z"/></g>
</svg>
